<?xml version="1.0" encoding="UTF-8" standalone="no"?>
<svg
   viewBox="0 0 721.40784 183.50369"
   height="183.50369"
   width="721.40784"
   xml:space="preserve"
   id="svg2"
   version="1.1"
   sodipodi:docname="IzlocanjeAmplitude.svg"
   inkscape:version="1.3.2 (091e20e, 2023-11-25, custom)"
   xmlns:inkscape="http://www.inkscape.org/namespaces/inkscape"
   xmlns:sodipodi="http://sodipodi.sourceforge.net/DTD/sodipodi-0.dtd"
   xmlns="http://www.w3.org/2000/svg"
   xmlns:svg="http://www.w3.org/2000/svg"
   xmlns:rdf="http://www.w3.org/1999/02/22-rdf-syntax-ns#"
   xmlns:cc="http://creativecommons.org/ns#"
   xmlns:dc="http://purl.org/dc/elements/1.1/"><sodipodi:namedview
     id="namedview1"
     pagecolor="#ffffff"
     bordercolor="#000000"
     borderopacity="0.25"
     inkscape:showpageshadow="2"
     inkscape:pageopacity="0.0"
     inkscape:pagecheckerboard="0"
     inkscape:deskcolor="#d1d1d1"
     inkscape:zoom="2.3310554"
     inkscape:cx="120.11727"
     inkscape:cy="58.986157"
     inkscape:window-width="1920"
     inkscape:window-height="1017"
     inkscape:window-x="1912"
     inkscape:window-y="-8"
     inkscape:window-maximized="1"
     inkscape:current-layer="svg2" /><metadata
     id="metadata8"><rdf:RDF><cc:Work
         rdf:about=""><dc:format>image/svg+xml</dc:format><dc:type
           rdf:resource="http://purl.org/dc/dcmitype/StillImage" /></cc:Work></rdf:RDF></metadata><defs
     id="defs6" /><g
     transform="matrix(1.3333333,0,0,-1.3333333,14.162544,184.76)"
     id="g10"><g
       transform="scale(0.1)"
       id="g12"><path
         id="path14"
         style="fill:none;stroke:#000000;stroke-width:11.3386;stroke-linecap:butt;stroke-linejoin:miter;stroke-miterlimit:4;stroke-dasharray:none;stroke-opacity:1"
         d="M 35.5508,658.242 H 1385.16" /><path
         id="path16"
         style="fill:#000000;fill-opacity:1;fill-rule:evenodd;stroke:none"
         d="m 1369.3,690 87.3,-31.758 -87.3,-31.722 c 15.86,18.48 15.86,44.929 0,63.48 z" /><path
         id="path18"
         style="fill:none;stroke:#000000;stroke-width:11.3386;stroke-linecap:butt;stroke-linejoin:miter;stroke-miterlimit:4;stroke-dasharray:none;stroke-opacity:1"
         d="M 41.5195,1304.65 V 12.6211" /><path
         id="path20"
         style="fill:#000000;fill-opacity:1;fill-rule:evenodd;stroke:none"
         d="m 9.80078,1288.79 31.71872,87.3 31.7618,-87.3 c -18.4805,15.86 -44.9219,15.86 -63.48052,0 z" /><path
         id="path22"
         style="fill:none;stroke:#000000;stroke-width:11.3386;stroke-linecap:butt;stroke-linejoin:miter;stroke-miterlimit:4;stroke-dasharray:none;stroke-opacity:1"
         d="M 1923.4,661.84 H 3301.8" /><path
         id="path24"
         style="fill:#000000;fill-opacity:1;fill-rule:evenodd;stroke:none"
         d="m 3285.94,693.59 87.3,-31.75 -87.3,-31.719 c 15.86,18.469 15.86,44.918 0,63.469 z" /><path
         id="path26"
         style="fill:none;stroke:#000000;stroke-width:11.3386;stroke-linecap:butt;stroke-linejoin:miter;stroke-miterlimit:4;stroke-dasharray:none;stroke-opacity:1"
         d="M 1929.41,1308.24 V 16.1719" /><path
         id="path28"
         style="fill:#000000;fill-opacity:1;fill-rule:evenodd;stroke:none"
         d="m 1897.66,1292.38 31.75,87.31 31.72,-87.31 c -18.47,15.86 -44.92,15.86 -63.47,0 z" /><path
         id="path30"
         style="fill:none;stroke:#000000;stroke-width:11.3386;stroke-linecap:butt;stroke-linejoin:miter;stroke-miterlimit:4;stroke-dasharray:none;stroke-opacity:1"
         d="M 3940.82,667.852 H 5232.89" /><path
         id="path32"
         style="fill:#000000;fill-opacity:1;fill-rule:evenodd;stroke:none"
         d="m 5217.03,699.609 87.31,-31.757 -87.31,-31.762 c 15.86,18.519 15.86,44.93 0,63.519 z" /><path
         id="path34"
         style="fill:none;stroke:#000000;stroke-width:11.3386;stroke-linecap:butt;stroke-linejoin:miter;stroke-miterlimit:4;stroke-dasharray:none;stroke-opacity:1"
         d="M 3946.8,1314.26 V 22.1914" /><path
         id="path36"
         style="fill:#000000;fill-opacity:1;fill-rule:evenodd;stroke:none"
         d="m 3915.04,1298.4 31.76,87.3 31.75,-87.3 c -18.47,15.86 -44.92,15.86 -63.51,0 z" /><g
         transform="scale(0.887621,-1.11238)"
         id="g38"><path
           id="path40"
           style="fill:none;stroke:#000000;stroke-width:8.55815;stroke-linecap:butt;stroke-linejoin:round;stroke-miterlimit:10;stroke-dasharray:none;stroke-opacity:1"
           d="m 64.4279,-351.095 0.7085,-55.34 0.7481,-54.012 0.6998,-51.304 0.6997,-47.365 0.7129,-42.28 0.6997,-36.173 0.6998,-29.147 0.7569,-21.421 0.6997,-13.207 0.7042,-4.667 0.7085,4.004 0.6997,12.575 0.7042,20.746 0.7437,28.483 0.7085,35.436 0.7042,41.542 0.6997,46.631 0.7129,50.494 0.6997,53.165 0.7438,54.469 0.7129,54.469 0.6997,53.057 0.6998,50.388 0.7129,46.424 0.6997,41.335 0.7482,35.1827 0.6997,28.237 0.7085,20.5078 0.7042,12.2872 0.6997,3.8311 0.7085,-4.8109 0.7481,-13.3125 0.6998,-21.449 0.7129,-29.1183 0.6997,-36.0221 0.6998,-42.073 0.7129,-47.052 0.7437,-50.925 0.7042,-53.517 0.6997,-54.775 0.7085,-54.746 0.7042,-53.345 0.6997,-50.641 0.7569,-46.736 0.6997,-41.616 0.6998,-35.534 0.7129,-28.588 0.6997,-20.965 0.6998,-12.845 0.7571,-4.397 0.7,4.109 0.704,12.505 0.708,20.578 0.7,28.128 0.704,34.944 0.744,40.875 0.713,45.82 0.699,49.587 0.7,52.113 0.713,53.373 0.7,53.31 0.748,51.87 0.709,49.155 0.699,45.3 0.704,40.247 0.709,34.2348 0.7,27.3555 0.748,19.8406 0.699,11.8025 0.713,3.5152 0.7,-4.8461 0.7,-13.1334 0.713,-21.0732 0.744,-28.4439 0.699,-35.148 0.713,-40.984 0.7,-45.795 0.7,-49.479 0.713,-51.933 0.743,-53.131 0.704,-53.029 0.7,-51.621 0.709,-48.948 0.704,-45.093 0.7,-40.137 0.757,-34.2 0.699,-27.5 0.7,-20.044 0.713,-12.227 0.7,-4.109 0.748,4.144 0.708,12.192 0.7,19.974 0.704,27.184 0.7,33.711 0.708,39.404 0.749,44.067 0.699,47.656 0.713,50.037 0.7,51.196 0.7,51.024 0.713,49.661 0.743,47.017 0.704,43.232 0.709,38.375 0.7,32.553 0.704,25.989 0.708,18.7873 0.749,11.0932 0.699,3.164 0.7,-4.8074 0.713,-12.7121 0.7,-20.227 0.699,-27.257 0.757,-33.568 0.7,-39.123 0.704,-43.61 0.709,-47.088 0.699,-49.38 0.705,-50.458 0.743,-50.29 0.713,-48.914 0.7,-46.349 0.7,-42.638 0.713,-37.884 0.699,-32.275 0.744,-25.846 0.713,-18.857 0.7,-11.409 0.699,-3.694 0.713,4.045 0.7,11.623 0.748,18.96 0.7,25.736 0.709,31.851 0.704,37.156 0.699,41.504 0.709,44.85 0.748,47.052 0.7,48.043 0.713,47.895 0.699,46.532 0.7,43.997 0.713,40.38 0.744,35.826 0.704,30.375 0.7,24.157 0.708,17.386 0.704,10.176 0.7,2.778 0.757,-4.667 0.7,-12.01 0.699,-19.04 0.713,-25.557 0.7,-31.464 0.7,-36.524 0.757,-40.735 0.7,-43.895 0.704,-45.968 0.708,-46.95 0.7,-46.739 0.704,-45.406 0.744,-42.947 0.713,-39.509 0.699,-35.042 0.7,-29.818 0.713,-23.84 0.7,-17.351 0.748,-10.429 0.709,-3.298 0.699,3.867 0.704,10.886 0.709,17.593 0.7,23.84 0.748,29.459 0.699,34.312 0.713,38.315 0.7,41.325 0.7,43.305 0.713,44.212 0.744,43.958 0.699,42.701 0.713,40.349 0.7,36.984 0.704,32.757 0.709,27.706 0.743,21.99 0.704,15.767 0.7,9.197 0.709,2.356 0.704,-4.459 0.7,-11.139 0.757,-17.558 0.699,-23.49 0.7,-28.865 0.713,-33.469 0.7,-37.216 0.699,-40.103 0.749,-41.967 0.708,-42.807 0.704,-42.557 0.7,-41.3 0.708,-39.088 0.705,-35.85 0.743,-31.816 0.713,-26.969 0.7,-21.558 0.7,-15.669 0.713,-9.34 0.699,-2.912 0.748,3.579 0.709,9.941 0.7,16.01 0.704,21.631 0.708,26.727 0.7,31.039 0.748,34.667 0.7,37.29 0.713,39.084 0.7,39.853 0.699,39.619 0.713,38.378 0.744,36.236 0.704,33.227 0.709,29.35 0.699,24.796 0.705,19.633 0.708,14.04 0.748,8.084 0.7,1.994 0.7,-4.144 0.713,-10.176 0.699,-15.876 0.744,-21.179 0.713,-25.947 0.7,-30.06 0.704,-33.434 0.708,-35.959 0.7,-37.567 0.748,-38.28 0.7,-38.034 0.709,-36.904 0.704,-34.835 0.699,-31.995 0.713,-28.3 0.744,-24.019 0.7,-19.174 0.713,-13.87 0.699,-8.256 0.7,-2.525 0.713,3.262 0.744,8.885 0.704,14.292 0.7,19.247 0.708,23.742 0.704,27.598 0.7,30.727 0.757,33.082 0.7,34.622 0.699,35.256 0.713,35.014 0.7,33.919 0.7,32.023 0.757,29.251 0.7,25.846 0.704,21.811 0.708,17.242 0.7,12.252 0.704,7.03 0.744,1.608 0.713,-3.757 0.699,-9.088 0.7,-14.124 0.713,-18.752 0.7,-22.959 0.748,-26.548 0.709,-29.504 0.699,-31.672 0.704,-33.118 0.709,-33.676 0.7,-33.459 0.748,-32.454 0.7,-30.583 0.712,-28.054 0.7,-24.866 0.7,-21.038 0.713,-16.782 0.744,-12.119 0.704,-7.227 0.708,-2.177 0.7,2.876 0.704,7.796 0.709,12.505 0.743,16.891 0.704,20.746 0.7,24.094 0.713,26.863 0.7,28.866 0.7,30.196 0.757,30.762 0.699,30.52 0.7,29.532 0.713,27.851 0.7,25.459 0.699,22.474 0.749,18.886 0.708,14.924 0.704,10.609 0.7,6.005 0.708,1.338 0.705,-3.371 0.743,-8.01 0.713,-12.361 0.7,-16.396 0.7,-20.058 0.713,-23.138 0.699,-25.702 0.748,-27.608 0.709,-28.796 0.7,-29.322 0.704,-29.111 0.7,-28.163 0.708,-26.618 0.748,-24.364 0.7,-21.6 0.713,-18.26 0.7,-14.573 0.699,-10.535 0.713,-6.282 0.744,-1.9 0.704,2.454 0.709,6.743 0.699,10.815 0.705,14.609 0.708,17.944 0.748,20.866 0.7,23.208 0.7,24.968 0.713,26.123 0.699,26.583 0.7,26.376 0.757,25.529 0.7,24.058 0.704,21.979 0.708,19.381 0.7,16.336 0.704,12.846 0.744,9.133 0.713,5.162 0.7,1.086 0.699,-2.985 0.713,-6.946 0.7,-10.753 0.744,-14.257 0.713,-17.379 0.699,-20.083 0.7,-22.267 0.713,-23.914 0.7,-24.971 0.748,-25.425 0.7,-25.241 0.708,-24.444 0.704,-23.068 0.7,-21.179 0.709,-18.717 0.748,-15.904 0.7,-12.684 0.712,-9.197 0.7,-5.474 0.7,-1.728 0.713,2.079 0.744,5.752 0.704,9.341 0.699,12.575 0.709,15.483 0.704,18.049 0.744,20.059 0.713,21.628 0.699,22.583 0.7,23.029 0.713,22.864 0.7,22.159 0.748,20.855 0.709,19.068 0.699,16.828 0.704,14.187 0.709,11.202 0.7,7.936 0.748,4.46 0.7,0.98 0.712,-2.599 0.7,-6.04 0.7,-9.376 0.713,-12.4 0.744,-15.163 0.704,-17.53 0.708,-19.454 0.7,-20.894 0.704,-21.842 0.709,-22.261 0.743,-22.088 0.704,-21.459 0.7,-20.262 0.713,-18.608 0.7,-16.505 0.7,-14.015 0.757,-11.202 0.699,-8.182 0.7,-4.951 0.713,-1.609 0.7,1.718 0.704,4.951 0.744,8.073 0.708,10.96 0.704,13.555 0.7,15.806 0.708,17.628 0.705,18.994 0.743,19.911 0.713,20.301 0.7,20.192 0.7,19.587 0.713,18.475 0.699,16.926 0.748,14.96 0.709,12.603 0.7,10.015 0.704,7.093 0.7,4.074 0.708,0.906 0.748,-2.248 0.7,-5.302 0.713,-8.281 0.7,-11.03 0.699,-13.519 0.713,-15.662 0.744,-17.386 0.704,-18.752 0.709,-19.588 0.699,-19.985 0.705,-19.949 0.708,-19.346 0.748,-18.33 0.7,-16.856 0.7,-14.995 0.713,-12.782 0.699,-10.285 0.7,-7.55 0.757,-4.639 0.7,-1.619 0.704,1.376 0.708,4.351 0.7,7.199 0.704,9.871 0.744,12.217 0.713,14.331 0.7,16.01 0.699,17.315 0.713,18.187 0.7,18.58 0.744,18.538 0.713,17.979 0.699,17.063 0.7,15.669 0.713,13.871 0.7,11.722 0.748,9.376 0.7,6.672 0.708,3.901 0.704,0.98 0.7,-1.924 0.713,-4.846 0.744,-7.589 0.7,-10.184 0.712,-12.54 0.7,-14.538 0.7,-16.252 0.713,-17.53 0.744,-18.393 0.704,-18.861 0.699,-18.787 0.709,-18.331 0.704,-17.386 0.7,-16.048 0.757,-14.356 0.699,-12.262 0.7,-9.935 0.713,-7.342 0.7,-4.594 0.7,-1.762 0.757,1.158 0.699,4.011 0.704,6.742 0.709,9.267 0.7,11.624 0.704,13.656 0.744,15.346 0.712,16.684 0.7,17.523 1.413,35.959 0.7,17.554 0.748,16.649 0.708,15.346 0.7,13.656 0.704,11.624 0.709,9.306 0.699,6.742 0.748,3.971 0.7,1.159 0.713,-1.724 0.7,-4.593 0.7,-7.346 0.713,-9.935 0.743,-12.252 0.7,-14.366 0.713,-16.044 0.7,-17.386 0.704,-18.331 0.744,-18.791 0.708,-18.822 0.704,-18.394 0.7,-17.53 0.713,-16.216 0.7,-14.574 0.743,-12.505 0.713,-10.183 0.7,-7.624 0.7,-4.811 0.713,-1.931 0.699,0.986 0.749,3.895 0.699,6.714 0.709,9.341 0.704,11.757 0.7,13.909 0.708,15.659 0.748,17.035 0.7,18.018 0.713,18.534 0.7,18.612 0.699,18.193 0.713,17.316 0.744,16.045 0.704,14.295 0.709,12.252 0.699,9.872 0.705,7.191 0.699,4.397 0.757,1.366 0.7,-1.619 0.7,-4.593 0.713,-7.554 0.699,-10.257 0.7,-12.782 0.757,-14.995 0.7,-16.856 0.704,-18.295 0.708,-19.346 0.7,-19.911 0.704,-19.984 0.744,-19.588 0.713,-18.717 0.7,-17.386 0.699,-15.623 0.713,-13.523 0.7,-10.995 0.744,-8.288 0.713,-5.302 0.699,-2.213 0.705,0.917 0.708,4.109 0.7,7.093 0.748,10.005 0.7,12.649 0.713,14.959 0.699,16.954 0.7,18.51 0.713,19.598 0.744,20.192 0.7,20.325 0.712,19.911 0.7,19.033 0.7,17.628 0.713,15.841 0.744,13.555 0.704,10.995 0.699,8.108 0.709,4.955 0.704,1.752 0.7,-1.618 0.757,-4.917 0.699,-8.147 0.7,-11.198 0.713,-14.008 0.7,-16.469 0.7,-18.58 0.757,-20.227 0.699,-21.425 0.704,-22.088 0.709,-22.221 0.7,-21.846 0.704,-20.856 0.744,-19.454 0.712,-17.495 0.7,-15.128 0.7,-12.396 0.713,-9.341 0.7,-6.005 0.748,-2.563 0.708,0.98 0.7,4.495 0.704,7.974 0.709,11.202 0.699,14.184 0.749,16.894 0.699,19.103 0.713,20.891 0.7,22.158 0.7,22.9 0.713,23.029 0.743,22.618 0.704,21.667 0.709,20.083 0.7,18.053 0.704,15.56 0.708,12.603 0.744,9.306 0.704,5.833 0.7,2.103 0.713,-1.689 0.7,-5.474 0.699,-9.162 0.757,-12.649 0.7,-15.866 0.7,-18.717 0.713,-21.108 0.699,-23.068 0.7,-24.405 0.748,-25.217 0.709,-25.389 0.704,-24.936 0.7,-23.876 0.708,-22.26 0.704,-20.055 0.744,-17.351 0.713,-14.222 0.7,-10.707 0.699,-6.921 0.713,-2.95 0.7,1.124 0.748,5.197 0.709,9.169 0.699,12.891 0.705,16.361 0.699,19.419 0.709,22.014 0.748,24.093 0.7,25.569 0.713,26.4 0.699,26.621 0.7,26.123 0.757,25.045 0.7,23.24 0.704,20.901 0.708,17.98 0.7,14.643 0.704,10.851 0.744,6.777 0.713,2.49 0.7,-1.861 0.699,-6.247 0.713,-10.472 0.7,-14.538 0.748,-18.257 0.709,-21.522 0.699,-24.343 0.705,-26.583 0.708,-28.121 0.7,-29.08 0.748,-29.29 0.7,-28.757 0.713,-27.527 0.699,-25.674 0.7,-23.106 0.713,-20.02 0.744,-16.36 0.7,-12.326 0.712,-7.937 0.7,-3.336 0.7,1.366 0.713,6.04 0.744,10.644 0.704,14.96 0.699,18.959 0.709,22.513 0.704,25.494 0.7,27.886 0.757,29.603 0.699,30.547 0.7,30.797 0.713,30.235 0.7,28.936 0.7,26.899 0.757,24.163 0.699,20.786 0.704,16.926 0.7,12.533 0.709,7.866 0.704,2.921 0.744,-2.149 0.712,-7.163 0.7,-12.073 0.7,-16.758 0.713,-20.999 0.7,-24.785 0.748,-28.03 0.708,-30.548 0.7,-32.38 0.704,-33.389 0.709,-33.676 0.699,-33.044 0.749,-31.608 0.699,-29.463 0.713,-26.509 0.7,-22.896 0.7,-18.717 0.713,-14.088 0.743,-8.99 0.704,-3.758 0.709,1.693 0.7,7.055 0.704,12.326 0.708,17.277 0.748,21.846 0.7,25.908 0.7,29.326 0.713,32.064 0.7,33.954 0.699,35.078 0.757,35.33 0.7,34.656 0.7,33.154 0.713,30.765 0.699,27.668 0.705,23.77 0.743,19.317 0.709,14.331 0.704,8.955 0.7,3.297 0.713,-2.461 0.699,-8.218 0.744,-13.8 0.713,-19.103 0.7,-23.946 0.699,-28.265 0.713,-31.924 0.7,-34.797 0.748,-36.84 0.709,-37.992 0.699,-38.207 0.705,-37.539 0.699,-35.889 0.709,-33.36 0.748,-29.989 0.7,-25.92 0.713,-21.108 0.699,-15.83 0.7,-10.086 0.713,-4.108 0.744,2.04 0.704,8.182 0.708,14.078 0.7,19.704 0.704,24.866 0.709,29.388 0.748,33.287 0.7,36.31 0.699,38.459 0.713,39.682 0.7,39.888 0.7,39.123 0.757,37.395 0.699,34.691 0.705,31.113 0.708,26.801 0.7,21.702 0.704,16.044 0.744,10.009 0.713,3.648 0.699,-2.841 0.7,-9.306 0.713,-15.56 0.7,-21.484 0.744,-26.934 0.712,-31.752 0.7,-35.78 0.704,-39.014 0.709,-41.226 0.7,-42.522 0.748,-42.702 0.699,-41.893 0.709,-40.04 0.704,-37.181 0.7,-33.399 0.757,-28.791 0.7,-23.43 0.699,-17.484 0.713,-11.093 0.7,-4.397 0.7,2.465 0.757,9.232 0.699,15.841 0.704,22.085 0.7,27.78 0.709,32.795 0.704,37.083 0.744,40.38 0.712,42.775 0.7,44.067 0.7,44.247 0.713,43.375 0.7,41.399 0.748,38.385 0.708,34.414 0.7,29.529 0.704,23.914 0.709,17.664 0.699,10.959 0.749,3.895 0.699,-3.231 0.713,-10.363 0.7,-17.242 0.7,-23.77 0.713,-29.747 0.743,-34.968 0.704,-39.439 0.709,-42.881 0.7,-45.328 0.704,-46.673 0.708,-46.883 0.748,-45.894 0.7,-43.825 0.7,-40.633 0.713,-36.443 0.7,-31.401 0.699,-25.459 0.757,-18.959 0.7,-11.94 0.704,-4.639 0.709,2.887 0.699,10.25 0.705,17.485 0.743,24.237 0.709,30.41 0.704,35.924 0.7,40.489 0.713,44.067 0.699,46.603 0.744,47.934 0.713,48.14 0.7,47.123 0.699,44.913 0.713,41.613 0.7,37.227 0.748,31.959 0.7,25.81 0.708,18.995 0.705,11.732 0.699,4.144 0.709,-3.659 0.748,-11.308 0.7,-18.745 0.713,-25.782 0.699,-32.202 0.7,-37.82 0.713,-42.557 0.744,-46.252 0.704,-48.804 0.708,-50.216 0.7,-50.399 0.704,-49.299 0.7,-46.989 0.757,-43.537 0.7,-39.015 0.699,-33.507 0.713,-27.173 0.7,-20.129 0.7,-12.603 0.757,-4.737 0.7,3.227 0.704,11.198 0.708,18.861 0.7,26.053 0.704,32.662 0.744,38.448 0.713,43.337 0.699,47.091 0.7,49.721 0.713,51.133 0.7,51.269 0.744,50.146 0.712,47.727 0.7,44.176 0.704,39.498 0.709,33.786 0.7,27.281 0.748,20.059 0.699,12.287 0.709,4.217 0.704,-4.01 0.7,-12.108 0.713,-20.02 0.744,-27.355 0.699,-34.137 0.713,-40.067 0.7,-44.984 0.7,-48.84 0.713,-51.557 0.743,-52.913 0.704,-53.068 0.7,-51.824 0.709,-49.381 0.704,-45.714 0.7,-40.875 0.756,-35.053 0.7,-28.37 0.7,-20.965 0.713,-13.024 0.7,-4.788 0.699,3.63 0.757,11.9 0.7,19.911 0.704,27.464 0.709,34.34 0.699,40.345 0.705,45.374 0.743,49.271 0.713,51.969 0.7,53.373 0.7,53.453 0.713,52.211 0.699,49.697 0.748,45.928 0.709,40.977 0.7,35.014 0.704,28.237 0.708,20.677 0.748,12.61 0.7,4.217 0.7,-4.322 0.713,-12.712 0.7,-20.895 0.699,-28.479 0.757,-35.464 0.7,-41.514 0.704,-46.592 0.709,-50.567 0.699,-53.24 0.705,-54.637 0.743,-54.715 0.709,-53.415 0.704,-50.81 0.7,-46.953 0.713,-41.964 0.699,-35.924 0.744,-28.999 0.713,-21.386 0.7,-13.17 0.699,-4.7 0.713,3.89 0.7,12.4 0.748,20.61 0.7,28.335 0.708,35.295 0.705,41.441 0.699,46.522 0.709,50.469 0.748,53.201 0.7,54.532 0.713,54.602 0.699,53.239 0.7,50.638 0.713,46.701 0.744,41.651 0.704,35.573 0.708,28.549 0.7,20.894 0.704,12.639 0.7,4.108 0.757,-4.53 0.7,-13.098 0.699,-21.315 0.713,-29.073 0.7,-36.029 0.7,-42.171 0.757,-47.27 0.7,-51.231 0.704,-53.875 1.408,-110.476 0.704,-53.903 0.744,-51.196 0.713,-47.27 0.699,-42.168 0.7,-36.032 0.713,-29.045 0.7,-21.347 0.748,-13.07 0.708,-4.55 0.7,4.1 0.704,12.68 0.709,20.856 0.7,28.588 0.748,35.573 0.699,41.648 0.713,46.736 0.7,50.606 0.7,53.271 0.713,54.606 0.744,54.567 0.699,53.166 0.713,50.493 0.7,46.533 0.704,41.433 0.709,35.331 0.743,28.335 0.704,20.613 0.7,12.431 0.709,3.902 0.704,-4.674 0.7,-13.197 0.756,-21.351 0.7,-28.974 0.7,-35.924 0.713,-41.925 0.7,-46.954 0.699,-50.81 0.757,-53.418 0.7,-54.676 0.704,-54.602 0.7,-53.24 0.708,-50.529 0.705,-46.595 0.743,-41.515 0.713,-35.428 0.7,-28.476 0.7,-20.82 0.713,-12.72 0.699,-4.28 0.748,4.21 0.709,12.64 0.7,20.69 0.704,28.225 0.708,35.089 0.7,41.008 0.748,45.904 0.7,49.721 0.713,52.249 0.7,53.489 0.699,53.409 0.713,51.968 0.744,49.31 0.704,45.398 0.709,40.391 0.699,34.34 0.705,27.5 0.708,19.938 0.748,11.94 0.7,3.624 0.7,-4.748 0.713,-12.989 0.699,-20.929 0.7,-28.336 0.757,-35.014 0.7,-40.879 0.704,-45.647 0.708,-49.374 0.7,-51.799 0.704,-53.019 0.744,-52.888 0.709,-51.519 0.704,-48.805 0.699,-44.987 0.713,-39.994 0.7,-34.098 0.744,-27.358 0.713,-19.95 0.699,-12.08 0.7,-3.96 0.713,4.24 0.744,12.33 0.704,20.09 0.7,27.317 0.708,33.855 0.704,39.503 0.7,44.211 0.757,47.796 0.7,50.181 0.699,51.305 0.713,51.161 0.7,49.76 0.7,47.157 0.757,43.34 0.7,38.523 0.704,32.686 0.708,26.133 0.7,18.886 0.704,11.237 0.744,3.301 0.713,-4.702 0.699,-12.568 0.7,-20.094 0.713,-27.102 0.7,-33.469 0.748,-38.979 0.708,-43.509 0.7,-46.954 0.704,-49.23 0.709,-50.324 0.7,-50.182 0.748,-48.776 0.699,-46.209 0.713,-42.494 0.7,-37.782 0.7,-32.131 0.713,-25.702 0.744,-18.715 0.699,-11.27 0.713,-3.59 0.7,4.18 0.704,11.8 0.709,19.07 0.743,25.846 0.704,31.984 0.7,37.3 0.709,41.676 0.704,44.984 0.7,47.161 0.757,48.186 0.699,48.032 0.7,46.638 0.713,44.141 0.7,40.559 0.699,35.959 0.757,30.477 0.7,24.308 0.704,17.519 0.7,10.321 0.708,2.914 0.705,-4.523 0.743,-11.911 0.713,-18.889 0.7,-25.421 0.7,-31.295 0.713,-36.416 0.699,-40.552 0.748,-43.761 0.709,-45.859 0.7,-46.774 0.704,-46.603 0.708,-45.261 0.7,-42.846 0.748,-39.358 0.7,-34.905 0.713,-29.677 0.7,-23.707 0.699,-17.207 0.713,-10.25 0.744,-3.2 0.704,4 0.709,11.034 0.699,17.737 0.705,23.984 0.708,29.603 0.748,34.477 0.7,38.456 0.7,41.472 0.713,43.439 0.699,44.317 0.7,44.141 0.757,42.845 0.7,40.489 0.704,37.111 0.708,32.911 0.7,27.84 0.704,22.161 0.744,15.912 0.709,9.305 0.704,2.525 0.699,-4.316 0.713,-10.994 0.7,-17.422 0.744,-23.345 0.713,-28.697 0.699,-33.325 0.7,-37.083 0.713,-39.958 0.7,-41.82 0.748,-42.638 0.7,-42.414 0.708,-41.156 0.704,-38.915 0.7,-35.707 0.709,-31.681 0.748,-26.861 0.699,-21.385 0.713,-15.49 0.7,-9.232 0.7,-2.743 0.713,3.73 0.744,10.078 0.704,16.181 0.708,21.772 0.7,26.871 0.704,31.212 0.7,34.765 0.757,37.469 0.699,39.231 0.7,39.994 0.713,39.755 0.7,38.554 0.7,36.419 0.756,33.361 0.7,29.494 0.704,24.929 0.709,19.805 0.7,14.187 0.704,8.252 0.743,2.111 0.713,-3.972 0.7,-10.004 0.7,-15.732 0.713,-21.039 0.744,-25.81 0.704,-29.88 0.708,-33.29 0.7,-35.787 0.704,-37.399 0.709,-38.133 0.743,-37.894 0.704,-36.731 0.7,-34.691 0.713,-31.816 0.7,-28.198 0.7,-23.84 0.757,-19.005 0.699,-13.727 0.7,-8.108 0.713,-2.357 0.7,3.407 0.704,9.063 0.743,14.426 0.709,19.419 0.704,23.886 0.7,27.777 0.708,30.864 0.705,33.251 0.743,34.772 0.713,35.394 0.7,35.186 0.7,34.098 0.713,32.166 0.699,29.431 0.748,26.018 0.709,21.951 0.7,17.379 0.704,12.431 0.7,7.202 0.708,1.753 0.748,-3.614 0.7,-8.919 0.713,-13.941 0.7,-18.619 0.699,-22.79 0.713,-26.401 0.744,-29.325 0.704,-31.538 0.709,-32.9 0.699,-33.533 0.705,-33.325 0.708,-32.237 0.748,-30.449 0.7,-27.921 0.7,-24.687 0.713,-20.855 0.699,-16.649 0.7,-11.939 0.757,-7.058 0.7,-2.03 0.704,3.048 0.708,7.971 0.7,12.677 0.704,17.035 0.744,20.894 0.713,24.297 0.7,27.008 0.699,29.044 0.713,30.369 0.7,30.906 0.744,30.691 0.713,29.712 0.699,27.984 0.705,25.638 0.708,22.608 0.7,19.103 0.748,15.104 0.7,10.742 0.708,6.187 0.704,1.51 0.7,-3.237 0.709,-7.831 0.748,-12.179 0.699,-16.262 0.715,-19.84 0.7,-22.998 0.7,-25.53 0.71,-27.429 0.74,-28.623 0.71,-29.143 0.71,-28.939 0.7,-28.023 0.7,-26.435 0.7,-24.202 0.76,-21.414 0.7,-18.124 0.7,-14.401 0.71,-10.356 0.7,-6.113 0.7,-1.717 0.76,2.633 0.7,6.915 0.7,10.995 0.71,14.752 0.7,18.113 0.7,21.034 0.75,23.395 0.71,25.143 0.7,26.295 0.7,26.727 0.71,26.583 0.7,25.701 0.75,24.234 0.71,22.162 0.7,19.552 0.7,16.47 0.71,13.07 0.7,9.267 0.75,5.342 0.7,1.257 0.71,-2.803 0.7,-6.781 0.7,-10.569 0.71,-14.05 0.75,-17.235 0.7,-19.876 0.71,-22.123 0.7,-23.742 0.7,-24.796 0.71,-25.242 0.75,-25.072 0.7,-24.273 0.7,-22.896 0.71,-20.964 0.7,-18.573 0.7,-15.732 0.76,-12.505 0.7,-8.989 0.7,-5.331 0.71,-1.545 0.7,2.247 0.7,5.966 0.76,9.485 0.7,12.776 0.7,15.668 0.7,18.222 0.71,20.227 0.75,21.811 0.7,22.787 0.71,23.176 0.7,23.068 0.7,22.302 0.71,21.074 0.75,19.236 0.7,17.035 0.71,14.331 0.7,11.374 0.7,8.109 0.71,4.673 0.75,1.159 0.7,-2.426 0.7,-5.861 0.71,-9.162 0.7,-12.262 0.7,-14.96 0.76,-17.347 0.7,-19.276 0.7,-20.722 0.71,-21.663 0.7,-22.053 0.71,-21.944 0.74,-21.252 0.71,-20.083 0.7,-18.401 0.7,-16.326 0.71,-13.835 0.7,-11.03 0.75,-7.975 0.71,-4.772 0.7,-1.44 0.7,1.896 0.71,5.162 0.7,8.252 0.75,11.129 0.7,13.772 0.71,15.975 0.7,17.8 0.7,19.212 0.72,20.083 0.74,20.476 0.7,20.364 0.71,19.778 0.7,18.678 0.7,17.101 0.71,15.139 0.75,12.817 0.7,10.177 0.7,7.308 0.71,4.217 0.71,1.124 0.69,-2.04 0.76,-5.162 0.7,-8.081 0.7,-10.851 0.71,-13.305 0.7,-15.451 0.7,-17.207 0.76,-18.538 0.7,-19.426 0.7,-19.841 0.71,-19.696 0.7,-19.174 0.71,-18.151 0.74,-16.649 0.71,-14.816 0.7,-12.613 0.7,-10.075 0.72,-7.374 0.7,-4.422 0.74,-1.439 0.71,1.573 0.7,4.53 0.71,7.409 0.7,10.051 0.7,12.424 0.75,14.51 0.7,16.181 0.72,17.53 0.69,18.366 0.7,18.787 0.72,18.717 0.74,18.187 0.71,17.242 0.7,15.841 0.7,14.078 0.71,11.936 0.71,9.558 0.74,6.876 0.7,4.109 0.7,1.159 0.72,-1.753 0.7,-4.639 0.7,-7.406 0.75,-9.969 0.7,-12.326 0.7,-14.366 0.72,-16.048 0.7,-17.347 0.7,-18.226 0.75,-18.615 0.7,-18.608 0.71,-18.116 0.7,-17.214 0.7,-15.831 0.71,-14.151 0.74,-12.08 0.71,-9.728 0.7,-7.167 0.7,-4.386 0.72,-1.545 0.7,1.331 0.75,4.214 0.7,6.914 0.7,9.485 0.71,11.838 0.71,13.871 0.7,15.518 0.74,16.855 0.7,17.738 1.42,36.38 0.7,17.727 0.71,16.855 0.74,15.564 0.71,13.832 0.71,11.831 0.7,9.52 0.7,6.914 0.71,4.218 0.75,1.337 0.7,-1.545 0.7,-4.396 0.71,-7.129 0.7,-9.727 0.7,-12.073 0.75,-14.124 0.7,-15.865 0.71,-17.179 0.71,-18.116 0.7,-18.608 0.74,-18.619 0.7,-18.187 0.72,-17.312 0.7,-16.048 0.7,-14.366 0.71,-12.287 0.74,-9.97 0.7,-7.416 0.72,-4.632 0.7,-1.724 0.7,1.194 0.71,4.108 0.74,6.925 0.71,9.545 0.7,11.974 0.7,14.089 0.71,15.865 0.7,17.242 0.76,18.233 0.7,18.752 0.7,18.78 0.71,18.401 0.7,17.53 0.7,16.216 0.75,14.539 0.7,12.469 0.71,10.04 0.71,7.445 0.7,4.565 0.7,1.619 0.74,-1.44 0.72,-4.393 0.7,-7.336 0.7,-10.043 0.71,-12.575 0.7,-14.781 0.75,-16.648 0.71,-18.113 0.7,-19.142 0.7,-19.704 0.71,-19.77 0.7,-19.381 0.75,-18.509 0.7,-17.172 0.71,-15.416 0.7,-13.306 0.7,-10.777 0.71,-8.084 0.75,-5.088 0.7,-2.005 0.71,1.124 0.7,4.291 0.7,7.336 0.71,10.218 0.75,12.856 0.7,15.167 0.7,17.168 0.71,18.682 0.7,19.806 0.7,20.441 0.76,20.508 0.7,20.153 0.7,19.247 0.71,17.836 0.7,16.02 0.7,13.8 0.75,11.199 0.71,8.326 0.7,5.197 0.7,1.931 0.71,-1.411 0.7,-4.702 0.75,-7.937 0.71,-10.995 0.7,-13.765 0.7,-16.287 0.71,-18.331 0.7,-20.054 0.75,-21.211 0.71,-21.842 0.7,-22.018 0.7,-21.593 0.7,-20.683 0.71,-19.212 0.75,-17.316 0.7,-14.921 0.71,-12.146 0.7,-9.134 0.7,-5.798 0.71,-2.346 0.75,1.187 0.7,4.745 0.71,8.146 0.7,11.445 0.7,14.401 0.71,17.098 0.75,19.317 0.7,21.102 0.7,22.376 0.71,23.103 0.7,23.282 0.7,22.825 0.76,21.881 0.7,20.325 0.7,18.268 0.71,15.732 0.7,12.845 0.7,9.559 0.75,6.005 0.71,2.318 0.7,-1.482 0.7,-5.233 0.71,-8.954 0.7,-12.424 0.75,-15.634 0.71,-18.499 0.7,-20.901 0.7,-22.826 0.71,-24.192 0.7,-24.999 0.75,-25.146 0.7,-24.722 0.71,-23.669 0.7,-22.052 0.7,-19.802 0.72,-17.137 0.74,-14.015 0.7,-10.465 0.71,-6.703 0.7,-2.743 0.7,1.338 0.71,5.44 0.75,9.34 0.7,13.134 0.71,16.578 0.7,19.658 0.7,22.232 0.7,24.301 0.76,25.81 0.7,26.618 0.7,26.825 0.71,26.376 0.7,25.252 0.75,23.454 0.71,21.144 0.7,18.221 0.7,14.816 0.71,11.104 0.7,6.984 0.75,2.743 0.7,-1.654 0.71,-6.008 0.7,-10.282 0.7,-14.296 0.72,-18.015 0.74,-21.315 0.7,-24.129 0.71,-26.33 0.7,-27.921 0.71,-28.83 0.7,-29.038 0.75,-28.549 0.7,-27.32 0.7,-25.425 0.71,-22.895 0.7,-19.806 0.7,-16.118 0.76,-12.119 0.7,-7.687 0.7,-3.128 0.71,1.583 0.7,6.283 0.71,10.85 0.74,15.202 0.71,19.212 0.7,22.717 0.7,25.712 0.72,28.128 0.7,29.81 0.74,30.797 0.71,31.008 0.7,30.484 0.7,29.143 0.72,27.106 0.7,24.406 0.74,21.038 0.71,17.133 0.7,12.782 0.71,8.084 0.7,3.154 0.7,-1.932 0.75,-6.914 0.7,-11.866 0.71,-16.505 0.7,-20.757 0.7,-24.578 0.72,-27.78 0.74,-30.34 0.7,-32.128 0.71,-33.192 0.7,-33.431 0.71,-32.795 0.71,-31.393 0.74,-29.217 0.7,-26.302 0.7,-22.646 0.72,-18.513 0.7,-13.83 0.7,-8.79 0.75,-3.5 0.7,1.9 0.71,7.3 0.71,12.57 0.69,17.486 0.71,22.088 0.74,26.162 0.72,29.568 0.7,32.271 0.7,34.207 0.71,35.32 0.7,35.538 0.74,34.87 0.71,33.395 0.7,31.008 0.71,27.886 0.71,24.019 0.7,19.563 0.74,14.574 0.7,9.158 0.72,3.55 0.7,-2.209 0.7,-8.01 0.71,-13.558 0.74,-18.885 0.7,-23.707 0.72,-28.058 0.7,-31.679 0.7,-34.547 0.71,-36.598 0.74,-37.75 0.71,-37.988 0.7,-37.301 0.7,-35.643 0.71,-33.107 0.7,-29.786 0.76,-25.667 0.7,-20.89 0.69,-15.56 0.72,-9.87 0.7,-3.86 0.7,2.29 0.75,8.38 0.7,14.33 0.71,19.95 0.71,25.071 0.7,29.677 0.7,33.497 0.74,36.525 0.72,38.726 0.7,39.899 0.7,40.138 0.71,39.365 0.7,37.641 0.75,34.944 0.71,31.355 0.7,27.005 0.7,21.944 0.71,16.297 0.7,10.25 0.75,3.867 0.7,-2.599 0.71,-9.063 0.7,-15.307 0.7,-21.281 0.71,-26.692 0.74,-31.499 0.71,-35.534 0.71,-38.765 0.7,-41.019 0.7,-42.245 0.71,-42.494 0.74,-41.64 0.71,-39.787 0.7,-36.949 0.71,-33.147 0.7,-28.55 0.74,-23.21 0.72,-17.24 0.7,-10.85 0.7,-4.15 0.71,2.71 0.7,9.48 0.75,16.08 0.7,22.3 0.71,28.02 0.7,33.082 0.7,37.29 0.71,40.633 0.75,43.017 0.7,44.317 0.71,44.492 0.7,43.618 0.7,41.64 0.71,38.628 0.74,34.628 0.71,29.775 0.71,24.164 0.7,17.909 0.7,11.202 0.71,4.179 0.75,-3.02 0.7,-10.114 0.7,-16.999 0.71,-23.528 0.7,-29.494 0.7,-34.727 0.76,-39.196 0.7,-42.666 0.7,-45.047 0.71,-46.431 0.7,-46.631 0.7,-45.651 0.75,-43.582 0.71,-40.381 0.7,-36.237 0.7,-31.12 0.71,-25.25 0.7,-18.71 0.75,-11.7 0.71,-4.35 0.7,3.09 0.7,10.54 0.71,17.69 0.7,24.48 0.75,30.69 0.7,36.14 0.71,40.731 0.7,44.321 0.7,46.845 0.71,48.211 0.75,48.393 0.7,47.368 0.71,45.163 0.7,41.855 0.7,37.469 0.71,32.202 0.75,26.052 0.7,19.248 0.7,12.009 0.71,4.351 0.7,-3.371 0.7,-11.093 0.76,-18.51 0.7,-25.529 0.7,-31.914 0.71,-37.578 0.7,-42.315 0.7,-45.998 0.76,-48.573 0.7,-49.963 0.7,-50.146 0.71,-49.022 0.7,-46.782 0.7,-43.294 0.75,-38.77 0.71,-33.26 0.7,-26.89 0.7,-19.92 0.71,-12.36 0.7,-4.49 0.75,3.51 0.71,11.45 0.7,19.1 0.7,26.34 0.71,32.9 0.7,38.7 0.75,43.585 0.7,47.333 0.71,49.973 0.7,51.404 0.7,51.518 0.72,50.354 0.74,48.003 0.7,44.429 0.71,39.752 0.7,34.024 0.71,27.527 0.7,20.301 0.75,12.54 0.7,4.495 0.7,-3.757 0.71,-11.877 0.7,-19.731 0.7,-27.149 0.76,-33.848 0.7,-39.826 0.7,-44.731 0.71,-48.607 0.7,-51.27 0.71,-52.671 0.74,-52.814 0.71,-51.583 0.7,-49.127 0.7,-45.447 0.71,-40.62 0.71,-34.81 0.74,-28.12 0.71,-20.72 0.7,-12.75 0.7,-4.53 0.72,3.87 0.69,12.14 0.75,20.19 0.71,27.71 0.7,34.59 0.71,40.6 0.7,45.611 0.7,49.552 0.75,52.215 0.7,53.622 0.71,53.731 0.7,52.464 0.7,49.928 0.72,46.181 0.74,41.227 0.7,35.295 0.71,28.479 0.7,20.929 0.71,12.846 0.71,4.495 0.74,-4.074 0.7,-12.459 0.7,-20.613 0.72,-28.237 0.7,-35.187 0.74,-41.261 0.71,-46.353 0.7,-50.287 0.71,-52.987 0.7,-54.394 0.7,-54.434 0.75,-53.166 0.7,-50.567 0.72,-46.706 0.7,-41.72 0.69,-35.64 0.72,-28.76 0.74,-21.11 0.7,-12.92 0.71,-4.45 0.7,4.14 0.71,12.67 0.71,20.9 0.74,28.55 0.7,35.57 0.7,41.69 0.71,46.806 0.71,50.701 0.7,53.454 0.75,54.809 0.7,54.855 0.7,53.517 0.72,50.883 0.7,46.954 0.7,41.925 0.75,35.819 0.7,28.827 0.71,21.108 0.7,12.919 0.7,4.397 0.71,-4.288 0.74,-12.856 0.72,-21.063 0.69,-28.767 0.7,-35.815 0.72,-41.893 0.7,-47.024 0.75,-50.954 0.7,-53.615 0.7,-54.999" /></g><g
         transform="scale(1.00949,-0.990515)"
         id="g42"><path
           id="path44"
           style="fill:none;stroke:#000000;stroke-width:8.50433;stroke-linecap:butt;stroke-linejoin:round;stroke-miterlimit:10;stroke-dasharray:none;stroke-opacity:1"
           d="m 1925.68,-659.222 0.62,-91.413 0.65,-89.123 0.63,-84.678 0.61,-78.154 0.66,-69.65 0.62,-59.51 0.62,-47.83 0.62,-35.02 0.66,-21.34 0.61,-7.1 0.63,7.26 0.65,21.49 0.63,35.1 0.61,47.96 0.66,59.5 0.62,69.69 0.62,78.081 0.62,84.595 0.65,88.969 0.62,91.173 0.62,91.099 0.66,88.854 0.62,84.312 0.62,77.812 0.65,69.294 0.63,59.147 0.61,47.482 0.63,34.747 0.65,21.0633 0.63,6.9329 0.61,-7.4101 0.66,-21.4971 0.62,-35.055 0.62,-47.758 0.66,-59.277 0.62,-69.286 0.61,-77.65 0.62,-84.004 0.66,-88.334 0.62,-90.472 0.62,-90.392 0.65,-88.054 0.63,-83.566 0.61,-77.02 0.67,-68.576 0.61,-58.49 0.62,-46.94 0.62,-34.22 0.66,-20.7 0.62,-6.71 0.62,7.45 0.65,21.42 0.63,34.78 0.61,47.37 0.66,58.67 0.62,68.589 0.61,76.783 0.63,83.013 0.65,87.27 0.62,89.323 0.62,89.167 0.66,86.847 0.62,82.335 0.62,75.88 0.66,67.512 0.62,57.506 0.62,46.09 0.62,33.603 0.65,20.239 0.63,6.4561 0.61,-7.4891 0.65,-21.177 0.63,-34.385 0.61,-46.697 0.66,-57.81 0.62,-67.519 0.62,-75.517 0.62,-81.595 0.66,-85.735 0.62,-87.711 0.62,-87.549 0.66,-85.183 0.62,-80.762 0.61,-74.346 0.67,-66.088 0.61,-56.28 0.62,-45.03 0.66,-32.77 0.61,-19.73 0.63,-6.15 0.62,7.45 0.65,20.9 0.62,33.8 0.62,45.79 0.66,56.67 0.62,66.096 0.61,73.868 0.67,79.812 0.61,83.807 0.63,85.695 0.61,85.459 0.66,83.093 0.62,78.755 0.62,72.481 0.66,64.407 0.62,54.734 0.61,43.814 0.66,31.826 0.62,19.051 0.62,5.873 0.62,-7.407 0.65,-20.518 0.63,-33.005 0.61,-44.678 0.67,-55.215 0.61,-64.4 0.63,-71.889 0.65,-77.654 0.62,-81.476 0.62,-83.251 0.62,-83.01 0.66,-80.687 0.62,-76.436 0.61,-70.232 0.66,-62.393 0.62,-53.04 0.62,-42.35 0.66,-30.72 0.61,-18.35 0.63,-5.55 0.61,7.3 0.67,19.99 0.61,32.1 0.62,43.34 0.66,53.55 0.62,62.393 0.62,69.649 0.66,75.166 0.61,78.794 0.63,80.486 0.61,80.179 0.66,77.923 0.62,73.75 0.61,67.787 0.67,60.141 0.61,51.074 0.62,40.774 0.66,29.498 0.63,17.554 0.61,5.241 0.62,-7.209 0.65,-19.367 0.63,-31.037 0.61,-41.882 0.67,-51.662 0.61,-60.097 0.63,-67.085 0.65,-72.374 0.62,-75.829 0.62,-77.379 0.62,-77.098 0.65,-74.851 0.62,-70.828 0.62,-65.031 0.66,-57.7 0.62,-48.94 0.62,-39 0.66,-28.23 0.61,-16.72 0.63,-4.9 0.61,7.03 0.67,18.69 0.61,29.85 0.62,40.22 0.66,49.577 0.62,57.66 0.62,64.321 0.65,69.282 0.62,72.571 0.62,74.097 0.62,73.711 0.66,71.574 0.62,67.637 0.61,62.109 0.67,55.018 0.61,46.689 0.63,37.149 0.65,26.813 0.62,15.861 0.62,4.575 0.62,-6.822 0.66,-17.913 0.62,-28.587 0.62,-38.447 0.65,-47.371 0.62,-55.006 0.63,-61.288 0.65,-66.057 0.61,-69.132 0.63,-70.513 0.61,-70.153 0.67,-68.076 0.61,-64.317 0.63,-58.993 0.65,-52.293 0.62,-44.256 0.61,-35.25 0.67,-25.4 0.62,-14.95 0.62,-4.22 0.65,6.55 0.63,17.16 0.61,27.21 0.62,36.55 0.66,45.006 0.61,52.254 0.63,58.169 0.65,62.625 0.62,65.539 0.62,66.845 0.66,66.412 0.62,64.439 0.62,60.89 0.61,55.763 0.67,49.41 0.61,41.803 0.63,33.245 0.65,23.946 0.62,14.035 0.62,3.905 0.65,-6.314 0.63,-16.244 0.61,-25.784 0.62,-34.633 0.66,-42.548 0.62,-49.378 0.62,-54.932 0.66,-59.158 0.61,-61.833 0.63,-63.024 0.65,-62.664 0.63,-60.733 0.61,-57.297 0.63,-52.573 0.65,-46.46 0.62,-39.314 0.62,-31.277 0.66,-22.44 0.61,-13.13 0.62,-3.59 0.66,6 0.62,15.38 0.62,24.33 0.62,32.61 0.66,40.072 0.61,46.46 0.63,51.697 0.65,55.602 0.63,58.09 0.61,59.237 0.66,58.804 0.62,56.978 0.62,53.8 0.62,49.252 0.66,43.577 0.61,36.83 0.63,29.266 0.65,20.98 0.62,12.265 0.62,3.277 0.65,-5.687 0.63,-14.473 0.61,-22.873 0.62,-30.599 0.66,-37.543 0.62,-43.578 0.62,-48.388 0.66,-52.096 0.62,-54.387 0.62,-55.405 0.65,-55.057 0.63,-53.275 0.61,-50.281 0.63,-46.062 0.65,-40.695 0.61,-34.396 0.63,-27.291 0.65,-19.552 0.62,-11.405 0.62,-3.024 0.67,5.354 0.61,13.571 0.62,21.406 0.61,28.599 0.67,35.138 0.62,40.655 0.62,45.238 0.65,48.582 0.63,50.798 0.61,51.697 0.65,51.303 0.63,49.742 0.62,46.843 0.62,42.903 0.65,37.942 0.62,32.026 0.62,25.437 0.66,18.18 0.62,10.608 0.62,2.753 0.65,-5.001 0.63,-12.702 0.61,-19.951 0.63,-26.667 0.65,-32.729 0.62,-37.898 0.62,-42.122 0.66,-45.27 0.62,-47.284 0.62,-48.113 0.65,-47.797 0.62,-46.259 0.62,-43.617 0.62,-39.953 0.66,-35.252 0.61,-29.81 0.63,-23.623 0.65,-16.922 0.63,-9.855 0.61,-2.567 0.66,4.696 0.62,11.788 0.62,18.575 0.66,24.845 0.62,30.449 0.62,35.256 0.62,39.16 0.65,42.119 0.62,43.971 0.62,44.796 0.65,44.41 0.63,43.061 0.61,40.544 0.67,37.15 0.61,32.807 0.63,27.728 0.61,21.962 0.66,15.779 0.62,9.145 0.62,2.406 0.66,-4.378 0.62,-10.967 0.61,-17.266 0.67,-23.07 0.61,-28.323 0.62,-32.808 0.62,-36.435 0.65,-39.168 0.63,-40.932 0.61,-41.645 0.67,-41.365 0.61,-40.071 0.62,-37.78 0.66,-34.543 0.62,-30.603 0.61,-25.795 0.63,-20.503 0.65,-14.67 0.63,-8.562 0.61,-2.287 0.66,4.022 0.62,10.214 0.62,16.059 0.66,21.485 0.61,26.347 0.62,30.564 0.62,33.955 0.66,36.514 0.62,38.139 0.62,38.88 0.65,38.577 0.63,37.382 0.61,35.256 0.67,32.295 0.61,28.588 0.63,24.143 0.61,19.166 0.66,13.759 0.62,8.045 0.62,2.209 0.65,-3.743 0.62,-9.472 0.62,-14.939 0.66,-20.077 0.62,-24.609 0.62,-28.548 0.62,-31.75 0.65,-34.195 0.63,-35.722 0.61,-36.365 0.67,-36.206 0.61,-35.055 0.62,-33.088 0.66,-30.322 0.62,-26.857 0.62,-22.711 0.62,-18.07 0.65,-13.018 0.63,-7.607 0.61,-2.13 0.66,3.427 0.62,8.838 0.61,13.996 0.67,18.811 0.61,23.11 0.63,26.817 0.61,29.897 0.66,32.184 0.62,33.639 0.62,34.345 0.66,34.117 0.62,33.127 0.62,31.312 0.66,28.71 0.61,25.437 0.63,21.524 0.61,17.199 0.65,12.383 0.63,7.339 0.61,2.09 0.66,-3.12 0.62,-8.281 0.62,-13.215 0.66,-17.743 0.62,-21.891 0.61,-25.429 0.63,-28.319 0.66,-30.564 0.62,-32.026 0.61,-32.65 0.67,-32.531 0.61,-31.588 0.62,-29.897 0.66,-27.492 0.61,-24.328 0.63,-20.704 0.61,-16.524 0.66,-11.945 0.62,-7.142 0.62,-2.13 0.66,2.883 0.62,7.804 0.61,12.581 0.67,16.922 0.61,20.901 0.63,24.368 0.65,27.211 0.62,29.341 0.62,30.8 0.62,31.47 0.66,31.353 0.61,30.519 0.62,28.907 0.66,26.589 0.62,23.614 0.62,20.121 0.66,16.086 0.61,11.709 0.63,7.063 0.61,2.212 0.67,-2.686 0.61,-7.449 0.63,-12.068 0.65,-16.334 0.62,-20.267 0.62,-23.626 0.66,-26.419 0.62,-28.587 0.62,-30.015 0.61,-30.722 0.66,-30.677 0.62,-29.897 0.62,-28.351 0.66,-26.111 0.61,-23.272 0.63,-19.872 0.65,-15.928 0.63,-11.638 0.61,-7.055 0.62,-2.327 0.66,2.485 0.62,7.213 0.62,11.748 0.66,16.019 0.61,19.872 0.63,23.268 0.65,26.075 0.62,28.268 0.62,29.7 0.61,30.48 0.67,30.442 0.61,29.739 0.62,28.24 0.66,26.064 0.62,23.271 0.62,19.868 0.66,16.02 0.62,11.787 0.62,7.182 0.62,2.476 0.66,-2.327 0.61,-7.051 0.63,-11.642 0.65,-15.928 0.62,-19.833 0.62,-23.267 0.65,-26.154 0.62,-28.351 0.62,-29.854 0.62,-30.682 0.66,-30.756 0.62,-30.015 0.61,-28.552 0.67,-26.458 0.61,-23.627 0.63,-20.227 0.65,-16.366 0.63,-12.075 0.61,-7.45 0.62,-2.682 0.66,2.209 0.62,7.063 0.62,11.709 0.65,16.086 0.62,20.12 0.62,23.615 0.66,26.627 0.62,28.868 0.62,30.52 0.61,31.391 0.67,31.471 0.61,30.76 0.63,29.381 0.65,27.171 0.62,24.372 0.62,20.902 0.66,16.957 0.62,12.541 0.62,7.805 0.61,2.882 0.66,-2.129 0.62,-7.142 0.62,-11.945 0.66,-16.524 0.61,-20.665 0.63,-24.368 0.65,-27.448 0.63,-29.897 0.61,-31.592 0.63,-32.532 0.65,-32.689 0.62,-32.026 0.62,-30.52 0.66,-28.363 0.62,-25.428 0.62,-21.892 0.65,-17.742 0.62,-13.215 0.62,-8.282 0.62,-3.119 0.66,2.09 0.61,7.339 0.63,12.383 0.65,17.198 0.63,21.525 0.61,25.48 0.66,28.706 0.61,31.273 0.63,33.126 0.66,34.156 0.62,34.314 0.61,33.671 0.63,32.145 0.65,29.897 0.62,26.817 0.62,23.149 0.65,18.772 0.63,14 0.61,8.833 0.66,3.427 0.62,-2.129 0.62,-7.607 0.62,-13.014 0.66,-18.062 0.61,-22.724 0.63,-26.856 0.65,-30.323 0.63,-33.083 0.61,-35.059 0.66,-36.168 0.62,-36.392 0.62,-35.733 0.62,-34.156 0.65,-31.79 0.62,-28.548 0.62,-24.604 0.66,-20.042 0.62,-14.978 0.62,-9.469 0.65,-3.707 0.63,2.169 0.61,8.045 0.63,13.76 0.65,19.17 0.63,24.178 0.61,28.548 0.66,32.295 0.62,35.264 0.62,37.386 0.66,38.604 0.62,38.842 0.61,38.139 0.62,36.522 0.66,33.951 0.62,30.567 0.62,26.344 0.65,21.493 0.63,16.05 0.61,10.21 0.67,4.023 0.61,-2.287 0.62,-8.558 0.62,-14.671 0.66,-20.467 0.62,-25.827 0.62,-30.567 0.65,-34.582 0.63,-37.784 0.61,-40.068 0.66,-41.33 0.62,-41.684 0.61,-40.892 0.63,-39.196 0.65,-36.447 0.62,-32.807 0.62,-28.284 0.66,-23.11 0.62,-17.265 0.62,-10.968 0.66,-4.377 0.62,2.406 0.62,9.196 0.62,15.727 0.65,21.963 0.63,27.727 0.61,32.808 0.65,37.157 0.63,40.576 0.61,43.022 0.66,44.448 0.62,44.765 0.62,43.964 0.62,42.122 0.66,39.157 0.62,35.256 0.62,30.453 0.66,24.845 0.62,18.57 0.61,11.788 0.67,4.697 0.61,-2.563 0.62,-9.86 0.62,-16.918 0.65,-23.615 0.63,-29.778 0.62,-35.296 0.65,-39.953 0.62,-43.613 0.62,-46.263 0.66,-47.758 0.62,-48.152 0.61,-47.28 0.63,-45.273 0.65,-42.119 0.63,-37.902 0.61,-32.689 0.66,-26.698 0.62,-19.959 0.62,-12.699 0.66,-5.004 0.62,2.756 0.61,10.609 0.63,18.215 0.65,25.401 0.62,32.027 0.62,37.938 0.65,42.903 0.63,46.894 0.61,49.69 0.67,51.342 0.61,51.662 0.63,50.799 0.65,48.617 0.62,45.202 0.62,40.695 0.62,35.094 0.66,28.639 0.62,21.367 0.61,13.574 0.66,5.359 0.62,-3.032 0.62,-11.401 0.66,-19.557 0.61,-27.29 0.63,-34.393 0.61,-40.694 0.67,-46.023 0.61,-50.285 0.62,-53.315 0.66,-55.018 0.62,-55.404 0.62,-54.422 0.66,-52.057 0.61,-48.432 0.63,-43.538 0.61,-37.583 0.66,-30.599 0.62,-22.873 0.61,-14.47 0.67,-5.69 0.61,3.28 0.62,12.27 0.66,20.976 0.63,29.262 0.61,36.83 0.62,43.578 0.65,49.252 0.63,53.799 0.61,56.982 0.67,58.839 0.61,59.199 0.63,58.129 0.65,55.562 0.62,51.702 0.62,46.46 0.62,40.067 0.65,32.611 0.62,24.332 0.62,15.384 0.66,5.99 0.62,-3.584 0.62,-13.137 0.66,-22.435 0.61,-31.234 0.63,-39.358 0.61,-46.46 0.67,-52.529 0.61,-57.337 0.62,-60.736 0.66,-62.626 0.62,-63.063 0.62,-61.832 0.65,-59.159 0.62,-54.927 0.62,-49.371 0.62,-42.56 0.66,-34.626 0.62,-25.79 0.61,-16.24 0.67,-6.31 0.61,3.9 0.63,14.04 0.65,23.94 0.62,33.242 0.62,41.803 0.62,49.414 0.66,55.799 0.62,60.854 0.62,64.436 0.65,66.45 0.62,66.806 0.63,65.54 0.65,62.664 0.61,58.169 0.63,52.214 0.61,45.005 0.67,36.554 0.61,27.251 0.63,17.119 0.65,6.547 0.62,-4.22 0.61,-14.951 0.67,-25.397 0.62,-35.217 0.62,-44.291 0.61,-52.253 0.67,-59.029 0.61,-64.281 0.62,-68.076 0.66,-70.154 0.61,-70.552 0.63,-69.132 0.65,-66.052 0.62,-61.289 0.62,-55.01 0.62,-47.373 0.66,-38.44 0.62,-28.55 0.61,-17.95 0.67,-6.83 0.61,4.58 0.63,15.86 0.65,26.82 0.62,37.18 0.62,46.658 0.62,55.01 0.66,62.113 0.61,67.677 0.62,71.53 0.66,73.75 0.62,74.058 0.62,72.572 0.66,69.325 0.61,64.278 0.63,57.664 0.65,49.568 0.63,40.229 0.61,29.849 0.63,18.689 0.65,7.024 0.62,-4.89 0.62,-16.725 0.66,-28.189 0.61,-39.043 0.62,-48.944 0.66,-57.692 0.62,-65.035 0.62,-70.788 0.62,-74.891 0.66,-77.059 0.61,-77.414 0.63,-75.832 0.65,-72.335 0.63,-67.073 0.61,-60.144 0.66,-51.66 0.62,-41.89 0.62,-31.03 0.62,-19.36 0.66,-7.18 0.61,5.21 0.63,17.54 0.65,29.54 0.62,40.77 0.62,51.04 0.65,60.183 0.63,67.745 0.61,73.75 0.62,77.93 0.66,80.21 0.62,80.487 0.62,78.802 0.66,75.118 0.62,69.649 0.62,62.389 0.65,53.551 0.63,43.392 0.61,32.054 0.63,19.998 0.65,7.292 0.61,-5.557 0.63,-18.334 0.65,-30.689 0.62,-42.39 0.62,-53.007 0.67,-62.428 0.61,-70.233 0.62,-76.436 0.61,-80.683 0.67,-82.975 0.62,-83.29 0.62,-81.436 0.65,-77.694 0.63,-71.889 0.61,-64.399 0.65,-55.22 0.63,-44.67 0.62,-33.01 0.62,-20.51 0.65,-7.41 0.62,5.87 0.62,19.09 0.66,31.79 0.62,43.81 0.62,54.79 0.65,64.352 0.63,72.484 0.61,78.751 0.63,83.132 0.65,85.459 0.62,85.661 0.62,83.802 0.66,79.812 0.62,73.912 0.62,66.092 0.65,56.635 0.62,45.785 0.62,33.798 0.62,20.901 0.66,7.45 0.61,-6.153 0.63,-19.71 0.65,-32.78 0.63,-45.032 0.61,-56.276 0.66,-66.096 0.62,-74.346 0.62,-80.762 0.62,-85.183 0.66,-87.51 0.62,-87.746 0.62,-85.699 0.65,-81.622 0.62,-75.525 0.62,-67.516 0.65,-57.82 0.63,-46.69 0.61,-34.35 0.63,-21.22 0.65,-7.49 0.63,6.47 0.61,20.23 0.66,33.6 0.62,46.1 0.62,57.5 0.66,67.518 0.62,75.872 0.61,82.348 0.63,86.839 0.65,89.201 0.62,89.285 0.62,87.273 0.65,83.049 0.63,76.756 0.61,68.576 0.67,58.674 0.61,47.371 0.62,34.818 0.66,21.379 0.62,7.4496 0.61,-6.7082 0.63,-20.7004 0.65,-34.227 0.63,-46.933 0.61,-58.445 0.66,-68.58 0.62,-77.059 0.62,-83.57 0.66,-88.054 0.61,-90.354 0.62,-90.51 0.62,-88.33 0.66,-84.004 0.62,-77.647 0.62,-69.287 0.65,-59.28 0.63,-47.76 0.61,-35.06 0.67,-21.49 0.61,-7.37 0.63,6.9 0.61,21.09 0.66,34.71 0.62,47.48 0.62,59.16 0.65,69.28 0.62,77.815 0.62,84.35 0.66,88.82 1.24,182.271 0.62,88.973 0.65,84.592 0.63,78.076 0.61,69.688 0.67,59.506 0.61,47.955 0.62,35.15 0.66,21.4455 0.62,7.2603 0.62,-7.1025 0.62,-21.3393 0.65,-35.016 0.63,-47.836 0.61,-59.467 0.66,-69.688 0.62,-78.159 0.61,-84.678 0.67,-89.123 0.61,-91.375 0.63,-91.413 0.61,-89.123 0.66,-84.678 0.62,-78.154 0.62,-69.65 0.66,-59.51 0.62,-47.83 0.62,-35.02 0.66,-21.34 0.61,-7.1 0.63,7.26 0.61,21.49 0.65,35.1 0.63,47.96 0.61,59.5 0.66,69.69 0.62,78.081 0.62,84.595 0.66,88.969 0.62,91.173 0.61,91.099 0.63,88.854 0.66,84.312 0.62,77.812 0.61,69.294 0.67,59.147 0.61,47.482 0.62,34.747 0.66,21.0633 0.61,6.9329 0.63,-7.4101 0.61,-21.4971 0.66,-35.055 0.62,-47.758 0.62,-59.277 0.66,-69.286 0.62,-77.65 0.61,-84.004 0.67,-88.334 0.61,-90.472 0.63,-90.392 0.61,-88.054 0.66,-83.566 0.62,-77.02 0.62,-68.576 0.66,-58.49 0.61,-46.94 0.62,-34.22 0.66,-20.7 0.62,-6.71 0.62,7.45 0.62,21.42 0.65,34.78 0.63,47.37 0.61,58.67 0.67,68.589 0.61,76.783 0.63,83.013 0.65,87.27 0.62,89.323 0.62,89.167 0.62,86.847 0.66,82.335 0.62,75.88 0.61,67.512 0.66,57.506 0.62,46.09 0.62,33.603 0.66,20.239 0.61,6.4561 0.63,-7.4891 0.65,-21.177 0.63,-34.385 0.61,-46.697 0.62,-57.81 0.66,-67.519 0.62,-75.517 0.62,-81.595 0.66,-85.735 0.61,-87.711 0.63,-87.549 0.65,-85.183 0.62,-80.762 0.62,-74.346 0.61,-66.088 0.67,-56.28 0.61,-45.03 0.62,-32.77 0.66,-19.73 0.62,-6.15 0.62,7.45 0.66,20.9 0.62,33.8 0.62,45.79 0.62,56.67 0.66,66.096 0.61,73.868 0.63,79.812 0.65,83.807 0.62,85.695 0.62,85.459 0.65,83.093 0.62,78.755 0.62,72.481 0.62,64.407 0.66,54.734 0.62,43.814 0.61,31.826 0.67,19.051 0.61,5.873 0.63,-7.407 0.65,-20.518 0.63,-33.005 0.61,-44.678 0.62,-55.215 0.66,-64.4 0.62,-71.889 0.62,-77.654 0.65,-81.476 0.62,-83.251 0.62,-83.01 0.66,-80.687 0.62,-76.436 0.62,-70.232 0.61,-62.393 0.67,-53.04 0.61,-42.35 0.63,-30.72 0.65,-18.35 0.62,-5.55 0.62,7.3 0.66,19.99 0.62,32.1 0.62,43.34 0.61,53.55 0.66,62.393 0.62,69.649 0.62,75.166 0.66,78.794 0.61,80.486 0.63,80.179 0.65,77.923 0.63,73.75 0.61,67.787 0.63,60.141 0.65,51.074 0.62,40.774 0.62,29.498 0.66,17.554 0.62,5.241 0.62,-7.209 0.65,-19.367 0.62,-31.037 0.62,-41.882 0.62,-51.662 0.66,-60.097 0.61,-67.085 0.63,-72.374 0.65,-75.829 0.63,-77.379 0.61,-77.098 0.66,-74.851 0.61,-70.828 0.63,-65.031 0.61,-57.7 0.67,-48.94 0.61,-39 0.63,-28.23 0.65,-16.72 0.62,-4.9 0.62,7.03 0.65,18.69 0.63,29.85 0.61,40.22 0.62,49.577 0.66,57.66 0.62,64.321 0.62,69.282 0.66,72.571 0.61,74.097 0.63,73.711 0.65,71.574 0.63,67.637 0.61,62.109 0.63,55.018 0.65,46.689 0.62,37.149 0.62,26.813 0.65,15.861 0.62,4.575 0.62,-6.822 0.66,-17.913 0.62,-28.587 0.62,-38.447 0.65,-47.371 0.63,-55.006 0.61,-61.288 0.63,-66.057 0.65,-69.132 0.63,-70.513 0.61,-70.153 0.66,-68.076 0.62,-64.317 0.62,-58.993 0.66,-52.293 0.62,-44.256 0.61,-35.25 0.62,-25.4 0.66,-14.95 0.62,-4.22 0.62,6.55 0.65,17.16 0.63,27.21 0.61,36.55 0.67,45.006 0.61,52.254 0.62,58.169 0.62,62.625 0.66,65.539 0.62,66.845 0.62,66.412 0.65,64.439 0.63,60.89 0.61,55.763 0.66,49.41 0.62,41.803 0.61,33.245 0.63,23.946 0.65,14.035 0.62,3.905 0.62,-6.314 0.66,-16.244 0.62,-25.784 0.62,-34.633 0.66,-42.548 0.62,-49.378 0.62,-54.932 0.62,-59.158 0.65,-61.833 0.63,-63.024 0.61,-62.664 0.65,-60.733 0.63,-57.297 0.61,-52.573 0.66,-46.46 0.62,-39.314 0.62,-31.277 0.62,-22.44 0.66,-13.13 0.61,-3.59 0.63,6 0.66,15.38 0.62,24.33 0.61,32.61 0.67,40.072 0.61,46.46 0.62,51.697 0.62,55.602 0.65,58.09 0.63,59.237 0.62,58.804 0.65,56.978 0.62,53.8 0.62,49.252 0.66,43.577 0.62,36.83 0.61,29.266 0.63,20.98 0.65,12.265 0.63,3.277 0.61,-5.687 0.66,-14.473 0.62,-22.873 0.62,-30.599 0.66,-37.543 0.62,-43.578 0.61,-48.388 0.63,-52.096 0.65,-54.387 0.62,-55.405 0.62,-55.057 0.65,-53.275 0.63,-50.281 0.61,-46.062 0.67,-40.695 0.61,-34.396 0.63,-27.291 0.61,-19.552 0.66,-11.405 0.62,-3.024 0.62,5.354 0.66,13.571 0.62,21.406 0.61,28.599 0.66,35.138 0.62,40.655 0.62,45.238 0.62,48.582 0.65,50.798 0.63,51.697 0.61,51.303 0.67,49.742 0.61,46.843 0.62,42.903 0.66,37.942 0.62,32.026 0.62,25.437 0.62,18.18 0.65,10.608 0.63,2.753 0.61,-5.001 0.66,-12.702 0.62,-19.951 0.61,-26.667 0.67,-32.729 0.61,-37.898 0.62,-42.122 0.66,-45.27 0.63,-47.284 0.61,-48.113 0.62,-47.797 0.65,-46.259 0.63,-43.617 0.61,-39.953 0.67,-35.252 0.61,-29.81 0.63,-23.623 0.65,-16.922 0.62,-9.855 0.62,-2.567 0.62,4.696 0.65,11.788 0.62,18.575 0.62,24.845 0.66,30.449 0.62,35.256 0.62,39.16 0.66,42.119 0.61,43.971 0.63,44.796 0.61,44.41 0.67,43.061 0.61,40.544 0.62,37.15 0.66,32.807 0.62,27.728 0.62,21.962 0.65,15.779 0.62,9.145 0.62,2.406 0.62,-4.378 0.66,-10.967 0.62,-17.266 0.61,-23.07 0.67,-28.323 0.61,-32.808 0.63,-36.435 0.65,-39.168 0.62,-40.932 0.62,-41.645 0.62,-41.365 0.66,-40.071 0.62,-37.78 0.62,-34.543 0.65,-30.603 0.62,-25.795 0.62,-20.503 0.66,-14.67 0.61,-8.562 0.63,-2.287 0.61,4.022 0.67,10.214 0.61,16.059 0.63,21.485 0.65,26.347 0.62,30.564 0.61,33.955 0.67,36.514 0.62,38.139 0.62,38.88 0.61,38.577 0.67,37.382 0.61,35.256 0.62,32.295 0.66,28.588 0.61,24.143 0.63,19.166 0.65,13.759 0.62,8.045 0.62,2.209 0.62,-3.743 0.66,-9.472 0.62,-14.939 0.61,-20.077 0.67,-24.609 0.61,-28.548 0.63,-31.75 0.65,-34.195 0.62,-35.722 0.62,-36.365 0.62,-36.206 0.66,-35.055 0.61,-33.088 0.62,-30.322 0.66,-26.857 0.62,-22.711 0.62,-18.07 0.66,-13.018 0.61,-7.607 0.63,-2.13 0.61,3.427 0.67,8.838 0.61,13.996 0.63,18.811 0.65,23.11 0.62,26.817 0.62,29.897 0.66,32.184 0.61,33.639 0.62,34.345 0.62,34.117 0.66,33.127 0.62,31.312 0.62,28.71 0.66,25.437 0.61,21.524 0.63,17.199 0.65,12.383 0.63,7.339 0.61,2.09 0.62,-3.12 0.66,-8.281 0.62,-13.215 0.62,-17.743 0.66,-21.891 0.61,-25.429 0.63,-28.319 0.65,-30.564 0.62,-32.026 0.62,-32.65 0.65,-32.531 0.63,-31.588 0.61,-29.897 0.62,-27.492 0.66,-24.328 0.62,-20.704 0.62,-16.524 0.66,-11.945 0.62,-7.142 0.62,-2.13 0.65,2.883 0.63,7.804 0.61,12.581 0.63,16.922 0.65,20.901 0.61,24.368 0.63,27.211 0.65,29.341 0.62,30.8 0.62,31.47 0.67,31.353 0.61,30.519 0.62,28.907 0.61,26.589 0.67,23.614 0.62,20.121 0.62,16.086 0.65,11.709 0.63,7.063 0.61,2.212 0.65,-2.686 0.63,-7.449 0.62,-12.068 0.62,-16.334 0.65,-20.267 0.62,-23.626 0.62,-26.419 0.66,-28.587 0.62,-30.015 0.62,-30.722 0.65,-30.677 0.63,-29.897 0.61,-28.351 0.63,-26.111 0.65,-23.272 0.62,-19.872 0.62,-15.928 0.66,-11.638 0.62,-7.055 0.62,-2.327 0.65,2.485 0.62,7.213 0.62,11.748 0.62,16.019 0.66,19.872 0.61,23.268 0.63,26.075 0.65,28.268 0.63,29.7 0.61,30.48 0.66,30.442 0.62,29.739 0.62,28.24 0.62,26.064 0.66,23.271 0.62,19.868 0.62,16.02 0.65,11.787 0.62,7.182 0.62,2.476 0.65,-2.327 0.63,-7.051 0.61,-11.642 0.63,-15.928 0.65,-19.833 0.63,-23.267 0.61,-26.154 0.66,-28.351 0.62,-29.854 0.62,-30.682 0.66,-30.756 0.62,-30.015 0.61,-28.552 0.63,-26.458 0.65,-23.627 0.62,-20.227 0.62,-16.366 0.65,-12.075 0.63,-7.45 0.61,-2.682 0.67,2.209 0.61,7.063 0.62,11.709 0.62,16.086 0.66,20.12 0.61,23.615 0.63,26.627 0.65,28.868 0.63,30.52 0.61,31.391 0.66,31.471 0.62,30.76 0.62,29.381 0.62,27.171 0.65,24.372 0.62,20.902 0.62,16.957 0.66,12.541 0.62,7.805 0.62,2.882 0.65,-2.129 0.63,-7.142 0.61,-11.945 0.63,-16.524 0.65,-20.665 0.63,-24.368 0.61,-27.448 0.66,-29.897 0.62,-31.592 0.62,-32.532 0.65,-32.689 0.62,-32.026 0.62,-30.52 0.66,-28.363 0.62,-25.428 0.62,-21.892 0.62,-17.742 0.65,-13.215 0.63,-8.282 0.61,-3.119 0.67,2.09 0.61,7.339 0.62,12.383 0.66,17.198 0.62,21.525 0.62,25.48 0.62,28.706 0.65,31.273 0.63,33.126 0.61,34.156 0.66,34.314 0.62,33.671 0.61,32.145 0.67,29.897 0.61,26.817 0.63,23.149 0.61,18.772 0.66,14 0.62,8.833 0.62,3.427 0.66,-2.129 0.62,-7.607 0.62,-13.014 0.66,-18.062 0.61,-22.724 0.63,-26.856 0.61,-30.323 0.65,-33.083 0.63,-35.059 0.61,-36.168 0.66,-36.392 0.62,-35.733 0.62,-34.156 0.66,-31.79 0.62,-28.548 0.61,-24.604 0.63,-20.042 0.66,-14.978 0.62,-9.469 0.61,-3.707 0.67,2.169 0.61,8.045 0.62,13.76 0.66,19.17 0.61,24.178 0.63,28.548 0.61,32.295 0.66,35.264 0.62,37.386 0.62,38.604 0.66,38.842 0.62,38.139 0.61,36.522 0.67,33.951 0.61,30.567 0.63,26.344 0.61,21.493 0.66,16.05 0.62,10.21 0.62,4.023 0.66,-2.287 0.61,-8.558 0.62,-14.671 0.66,-20.467 0.62,-25.827 0.62,-30.567 0.62,-34.582 0.65,-37.784 0.63,-40.068 0.61,-41.33 0.67,-41.684 0.61,-40.892 0.63,-39.196 0.65,-36.447 0.62,-32.807 0.62,-28.284 0.62,-23.11 0.66,-17.265 0.62,-10.968 0.61,-4.377 0.66,2.406 0.62,9.196 0.62,15.727 0.66,21.963 0.61,27.727 0.63,32.808 0.61,37.157 0.67,40.576 0.61,43.022 0.62,44.448 0.66,44.765 0.62,43.964 0.62,42.122 0.66,39.157 0.61,35.256 0.63,30.453 0.61,24.845 0.66,18.57 0.62,11.788 0.61,4.697 0.67,-2.563 0.61,-9.86 0.62,-16.918 0.66,-23.615 0.62,-29.778 0.62,-35.296 0.62,-39.953 0.66,-43.613 0.62,-46.263 0.62,-47.758 0.66,-48.152 0.61,-47.28 0.63,-45.273 0.65,-42.119 0.62,-37.902 0.62,-32.689 0.65,-26.698 0.62,-19.959 0.62,-12.699 0.62,-5.004 0.66,2.756 0.62,10.609 0.61,18.215 0.67,25.401 0.61,32.027 0.63,37.938 0.65,42.903 0.63,46.894 0.61,49.69 0.62,51.342 0.66,51.662 0.62,50.799 0.62,48.617 0.65,45.202 0.62,40.695 0.62,35.094 0.66,28.639 0.62,21.367 0.62,13.574 0.61,5.359 0.67,-3.032 0.61,-11.401 0.63,-19.557 0.65,-27.29 0.62,-34.393 0.62,-40.694 0.66,-46.023 0.62,-50.285 0.62,-53.315 0.61,-55.018 0.66,-55.404 0.62,-54.422 0.62,-52.057 0.66,-48.432 0.61,-43.538 0.63,-37.583 0.65,-30.599 0.63,-22.873 0.61,-14.47 0.63,-5.69 0.65,3.28 0.62,12.27 0.62,20.976 0.66,29.262 0.62,36.83 0.62,43.578 0.65,49.252 0.62,53.799 0.62,56.982 0.62,58.839 0.66,59.199 0.61,58.129 0.63,55.562 0.65,51.702 0.63,46.46 0.61,40.067 0.66,32.611 0.61,24.332 0.63,15.384 0.61,5.99 0.67,-3.584 0.61,-13.137 0.63,-22.435 0.65,-31.234 0.62,-39.358 0.62,-46.46 0.65,-52.529 0.63,-57.337 0.61,-60.736 0.62,-62.626 0.66,-63.063 0.62,-61.832 0.62,-59.159 0.66,-54.927 0.61,-49.371 0.63,-42.56 0.65,-34.626 0.63,-25.79 0.61,-16.24 0.63,-6.31 0.65,3.9 0.62,14.04 0.62,23.94 0.65,33.242 0.62,41.803 0.62,49.414 0.66,55.799 0.62,60.854 0.62,64.436 0.62,66.45 0.66,66.806 0.61,65.54 0.63,62.664 0.65,58.169 0.63,52.214 0.61,45.005 0.66,36.554 0.62,27.251 0.62,17.119 0.62,6.547 0.66,-4.22 0.61,-14.951 0.62,-25.397 0.66,-35.217 0.62,-44.291 0.62,-52.253 0.65,-59.029 0.63,-64.281 0.61,-68.076 0.63,-70.154 0.65,-70.552 0.62,-69.132 0.62,-66.052 0.66,-61.289 0.62,-55.01 0.62,-47.373 0.65,-38.44 0.63,-28.55 0.61,-17.95 0.66,-6.83 0.62,4.58 0.61,15.86 0.63,26.82 0.65,37.18 0.62,46.658 0.62,55.01 0.66,62.113 0.62,67.677 0.62,71.53 0.66,73.75 0.62,74.058 0.62,72.572 0.62,69.325 0.65,64.278 0.63,57.664 0.61,49.568 0.65,40.229 0.63,29.849 0.61,18.689 0.66,7.024 0.62,-4.89 0.62,-16.725 0.62,-28.189 0.66,-39.043 0.61,-48.944 0.63,-57.692 0.66,-65.035 0.62,-70.788 0.61,-74.891 0.67,-77.059 0.61,-77.414 0.62,-75.832 0.62,-72.335 0.65,-67.073 0.63,-60.144 0.62,-51.66 0.65,-41.89 0.62,-31.03 0.62,-19.36 0.66,-7.18 0.62,5.21 0.61,17.54 0.63,29.54 0.65,40.77 0.63,51.04 0.61,60.183 0.66,67.745 0.62,73.75 0.62,77.93 0.66,80.21 0.62,80.487 0.61,78.802 0.63,75.118 0.65,69.649 0.62,62.389 0.62,53.551 0.65,43.392 0.63,32.054 0.61,19.998 0.67,7.292 0.61,-5.557 0.63,-18.334 0.61,-30.689 0.66,-42.39 0.62,-53.007 0.62,-62.428 0.66,-70.233 0.62,-76.436 0.61,-80.683 0.66,-82.975 0.62,-83.29 0.62,-81.436 0.62,-77.694 0.65,-71.889 0.63,-64.399 0.61,-55.22 0.67,-44.67 0.61,-33.01 0.62,-20.51 0.66,-7.41 0.62,5.87 0.62,19.09 0.62,31.79 0.65,43.81 0.63,54.79 0.61,64.352 0.66,72.484 0.62,78.751 0.61,83.132 0.67,85.459 0.61,85.661 0.62,83.802 0.62,79.812 0.67,73.912 0.61,66.092 0.62,56.635 0.65,45.785 0.63,33.798 0.61,20.901 0.67,7.45 0.61,-6.153 0.63,-19.71 0.61,-32.78 0.66,-45.032 0.62,-56.276 0.62,-66.096 0.65,-74.346 0.62,-80.762 0.62,-85.183 0.66,-87.51 0.62,-87.746 0.62,-85.699 0.62,-81.622 0.65,-75.525 0.63,-67.516 0.61,-57.82 0.67,-46.69 0.61,-34.35 0.62,-21.22 0.66,-7.49 0.62,6.47 0.62,20.23 0.65,33.6 0.62,46.1 0.62,57.5 0.62,67.518 0.66,75.872 0.62,82.348 0.61,86.839 0.67,89.201 0.61,89.285 0.63,87.273 0.65,83.049 0.62,76.756 0.62,68.576 0.62,58.674 0.66,47.371 0.62,34.818 0.62,21.379 0.65,7.4496 0.62,-6.7082 0.62,-20.7004 0.66,-34.227 0.61,-46.933 0.63,-58.445 0.61,-68.58 0.67,-77.059 0.61,-83.57 0.63,-88.054 0.65,-90.354 0.62,-90.51 0.61,-88.33 0.67,-84.004 0.62,-77.647 0.62,-69.287 0.61,-59.28 0.67,-47.76 0.61,-35.06 0.62,-21.49 0.66,-7.37 0.61,6.9 0.63,21.09 0.65,34.71 0.62,47.48 0.62,59.16 0.62,69.28 0.65,77.815 0.63,84.35 0.61,88.82 0.67,91.133 0.61,91.138 0.63,88.973 0.65,84.592 0.62,78.076 0.62,69.688 0.62,59.506 0.66,47.955 0.61,35.15 0.62,21.4455 0.66,7.2603 0.62,-7.1025 0.62,-21.3393 0.66,-35.016 0.61,-47.836 0.63,-59.467 0.61,-69.688 0.67,-78.159 0.61,-84.678 0.63,-89.123 0.65,-91.375" /></g><g
         transform="scale(1.48852,-0.511484)"
         id="g46"><path
           id="path48"
           style="fill:none;stroke:#000000;stroke-width:9.74602;stroke-linecap:butt;stroke-linejoin:round;stroke-miterlimit:10;stroke-dasharray:none;stroke-opacity:1"
           d="m 2657.03,-2436.24 h 0.42 l 0.42,0.08 h 0.45 l 0.42,0.07 0.45,0.08 0.84,0.15 0.45,0.15 0.41,0.08 0.45,0.15 0.42,0.16 0.42,0.23 0.44,0.15 0.42,0.23 0.45,0.23 0.84,0.45 0.44,0.23 0.43,0.31 0.44,0.3 0.84,0.62 0.45,0.38 0.42,0.3 0.44,0.38 0.84,0.77 0.45,0.46 0.42,0.38 0.45,0.46 0.84,0.91 0.44,0.54 0.42,0.46 0.45,0.53 0.84,1.07 0.45,0.53 0.41,0.62 0.45,0.61 0.84,1.22 0.45,0.61 0.41,0.69 0.45,0.61 0.84,1.37 0.45,0.69 0.42,0.76 0.44,0.77 0.43,0.68 0.41,0.77 0.45,0.84 0.42,0.76 0.44,0.84 0.43,0.77 0.41,0.84 0.45,0.84 0.42,0.91 0.45,0.84 0.84,1.84 0.44,0.91 0.43,0.92 0.44,0.91 0.84,1.99 0.44,0.99 0.43,1 0.44,0.99 0.42,1.07 0.42,0.99 0.45,1.07 0.42,1.07 0.45,1.07 0.41,1.14 0.43,1.07 0.44,1.15 0.42,1.14 0.45,1.15 0.41,1.15 0.42,1.22 0.45,1.14 0.42,1.22 0.45,1.23 0.42,1.22 0.42,1.3 0.45,1.22 0.41,1.3 0.45,1.22 0.84,2.6 0.44,1.37 0.42,1.3 0.45,1.37 0.42,1.38 0.45,1.37 0.84,2.75 0.44,1.38 0.43,1.45 0.44,1.45 0.84,2.9 0.44,1.45 0.42,1.45 0.45,1.53 0.42,1.45 0.42,1.53 0.45,1.53 0.41,1.52 0.46,1.61 0.41,1.52 0.42,1.61 0.45,1.53 0.42,1.6 0.44,1.6 0.42,1.68 0.42,1.61 0.45,1.6 0.42,1.68 0.44,1.68 0.84,3.36 0.45,1.68 0.42,1.68 0.45,1.76 0.42,1.68 0.42,1.76 0.44,1.75 0.43,1.76 0.44,1.76 0.42,1.75 0.42,1.83 0.44,1.76 0.43,1.83 0.44,1.84 0.84,3.66 0.45,1.84 0.42,1.83 0.45,1.91 0.41,1.83 0.43,1.91 0.44,1.91 0.42,1.91 0.45,1.91 0.84,3.82 0.44,1.98 0.42,1.91 0.45,1.99 0.84,3.97 0.45,1.98 0.41,1.99 0.45,1.99 0.42,1.98 0.42,2.06 0.45,1.99 0.41,2.06 0.45,2.06 0.42,1.99 0.42,2.06 0.45,2.06 0.42,2.14 0.44,2.06 0.43,2.06 0.41,2.14 0.45,2.07 0.42,2.13 0.44,2.14 0.42,2.06 0.42,2.14 0.45,2.14 0.42,2.14 0.45,2.21 0.84,4.28 0.44,2.22 0.43,2.13 0.44,2.22 0.42,2.14 0.42,2.21 0.44,2.22 0.42,2.21 0.45,2.22 0.84,4.43 0.45,2.29 0.41,2.21 0.46,2.22 0.41,2.29 0.43,2.21 0.44,2.29 0.42,2.22 0.44,2.29 0.84,4.58 0.45,2.29 0.42,2.29 0.44,2.29 0.84,4.59 0.45,2.29 0.42,2.29 0.45,2.37 0.42,2.29 0.42,2.37 0.44,2.29 0.43,2.36 0.44,2.29 0.42,2.37 0.42,2.29 0.44,2.37 0.43,2.37 0.44,2.37 0.42,2.29 0.42,2.36 0.45,2.37 0.42,2.37 0.45,2.37 0.84,4.73 0.44,2.37 0.42,2.37 0.45,2.44 0.84,4.74 0.44,2.36 0.42,2.37 0.45,2.44 0.84,4.74 0.45,2.44 0.41,2.37 0.45,2.37 0.42,2.44 0.42,2.37 0.45,2.44 0.41,2.37 0.45,2.37 0.42,2.44 0.42,2.37 0.45,2.44 0.42,2.37 0.44,2.45 0.43,2.36 0.41,2.45 0.45,2.36 0.42,2.45 0.44,2.37 0.43,2.44 0.41,2.37 0.45,2.44 0.42,2.37 0.45,2.37 0.41,2.44 0.46,2.37 0.41,2.44 0.43,2.37 0.44,2.44 0.42,2.37 0.45,2.37 0.41,2.44 0.42,2.37 0.45,2.37 0.42,2.44 0.44,2.37 0.84,4.73 0.46,2.45 0.41,2.36 0.45,2.37 0.84,4.74 0.44,2.36 0.42,2.37 0.45,2.37 0.84,4.73 0.44,2.37 0.43,2.37 0.44,2.37 0.43,2.29 0.41,2.37 0.45,2.36 0.42,2.29 0.45,2.37 0.41,2.29 0.43,2.37 0.44,2.29 0.42,2.37 0.45,2.29 0.84,4.58 0.44,2.37 0.42,2.29 0.45,2.29 0.84,4.58 0.45,2.22 0.41,2.29 0.45,2.29 0.42,2.29 0.42,2.22 0.45,2.29 0.41,2.21 0.45,2.22 0.42,2.29 0.42,2.21 0.45,2.22 0.42,2.21 0.44,2.22 0.84,4.43 0.45,2.21 0.42,2.22 0.44,2.14 0.43,2.21 0.41,2.14 0.45,2.14 0.42,2.21 0.45,2.14 0.84,4.28 0.44,2.14 0.43,2.13 0.44,2.14 0.42,2.06 0.42,2.14 0.44,2.06 0.43,2.14 0.44,2.06 0.84,4.13 0.45,2.06 0.41,2.06 0.46,1.99 0.84,4.12 0.44,1.99 0.42,1.98 0.45,2.07 0.84,3.97 0.44,1.98 0.42,1.91 0.44,1.99 0.43,1.91 0.41,1.98 0.46,1.91 0.41,1.91 0.45,1.91 0.84,3.81 0.45,1.92 0.42,1.83 0.44,1.91 0.84,3.67 0.44,1.83 0.43,1.83 0.44,1.83 0.43,1.84 0.41,1.75 0.45,1.84 0.42,1.75 0.45,1.76 0.84,3.51 0.44,1.76 0.42,1.76 0.45,1.68 0.41,1.68 0.43,1.75 0.44,1.68 0.43,1.68 0.44,1.61 0.42,1.68 0.42,1.6 0.45,1.68 0.41,1.61 0.45,1.6 0.84,3.21 0.45,1.52 0.41,1.61 0.46,1.53 0.83,3.05 0.45,1.53 0.42,1.52 0.44,1.46 0.43,1.52 0.41,1.45 0.45,1.46 0.42,1.45 0.44,1.37 0.43,1.45 0.41,1.38 0.45,1.45 0.42,1.37 0.45,1.38 0.42,1.37 0.42,1.3 0.44,1.37 0.43,1.3 0.44,1.3 0.84,2.6 0.44,1.22 0.43,1.3 0.44,1.22 0.84,2.44 0.45,1.23 0.42,1.22 0.45,1.14 0.84,2.29 0.44,1.15 0.42,1.15 0.45,1.07 0.41,1.14 0.45,1.07 0.84,2.14 0.44,1.07 0.43,0.99 0.44,0.99 0.43,1.07 0.41,1 0.45,0.91 0.42,0.99 0.45,0.92 0.42,0.99 0.41,0.92 0.45,0.84 0.42,0.92 0.45,0.91 0.84,1.68 0.44,0.84 0.43,0.84 0.44,0.77 0.42,0.84 0.42,0.76 0.45,0.76 0.42,0.77 0.44,0.69 0.42,0.76 0.42,0.69 0.45,0.68 0.41,0.69 0.46,0.69 0.41,0.61 0.43,0.69 0.44,0.61 0.42,0.61 0.44,0.53 0.43,0.61 0.41,0.54 0.45,0.53 0.42,0.54 0.44,0.53 0.43,0.54 0.41,0.46 0.46,0.45 0.41,0.46 0.45,0.46 0.42,0.46 0.42,0.38 0.44,0.38 0.43,0.38 0.44,0.39 0.42,0.38 0.42,0.3 0.44,0.31 0.43,0.38 0.44,0.23 0.43,0.31 0.41,0.22 0.45,0.31 0.42,0.23 0.45,0.23 0.41,0.15 0.43,0.23 0.44,0.15 0.42,0.16 0.45,0.15 0.41,0.15 0.43,0.08 0.44,0.07 0.42,0.16 h 0.45 l 0.84,0.15 h 1.73 l 0.42,-0.08 0.45,-0.07 h 0.41 l 0.45,-0.16 0.84,-0.15 0.45,-0.15 0.42,-0.15 0.44,-0.16 0.43,-0.15 0.41,-0.23 0.45,-0.15 0.42,-0.23 0.44,-0.23 0.43,-0.31 0.42,-0.22 0.44,-0.31 0.42,-0.23 0.45,-0.38 0.84,-0.61 0.44,-0.38 0.43,-0.39 0.44,-0.38 0.84,-0.76 0.45,-0.46 0.42,-0.46 0.44,-0.46 0.84,-0.91 0.45,-0.54 0.41,-0.53 0.46,-0.54 0.84,-1.07 0.44,-0.61 0.42,-0.53 0.45,-0.61 0.42,-0.61 0.41,-0.69 0.45,-0.61 0.42,-0.69 0.44,-0.69 0.84,-1.37 0.46,-0.76 0.41,-0.69 0.45,-0.77 0.84,-1.52 0.44,-0.84 0.43,-0.77 0.44,-0.84 0.84,-1.68 0.44,-0.84 0.43,-0.91 0.44,-0.92 0.43,-0.84 0.41,-0.92 0.45,-0.99 0.42,-0.92 0.45,-0.99 0.41,-0.91 0.43,-1 0.44,-1.07 0.42,-0.99 0.45,-0.99 0.84,-2.14 0.44,-1.07 0.42,-1.07 0.45,-1.14 0.42,-1.07 0.42,-1.15 0.45,-1.15 0.41,-1.14 0.45,-1.15 0.42,-1.14 0.42,-1.22 0.45,-1.23 0.41,-1.22 0.45,-1.22 0.42,-1.22 0.42,-1.3 0.45,-1.22 0.42,-1.3 0.44,-1.3 0.43,-1.3 0.44,-1.3 0.42,-1.37 0.42,-1.3 0.45,-1.37 0.42,-1.38 0.44,-1.37 0.42,-1.45 0.42,-1.38 0.45,-1.45 0.42,-1.37 0.45,-1.45 0.84,-2.91 0.44,-1.52 0.42,-1.46 0.45,-1.52 0.84,-3.06 0.44,-1.52 0.42,-1.53 0.45,-1.61 0.42,-1.52 0.41,-1.61 0.46,-1.6 0.41,-1.6 0.45,-1.61 0.42,-1.68 0.42,-1.6 0.45,-1.68 0.42,-1.61 0.44,-1.68 0.42,-1.68 0.42,-1.75 0.44,-1.68 0.43,-1.68 0.44,-1.76 0.84,-3.51 0.45,-1.76 0.42,-1.76 0.45,-1.75 0.42,-1.84 0.42,-1.75 0.44,-1.84 0.42,-1.83 0.45,-1.83 0.84,-3.67 0.44,-1.83 0.43,-1.91 0.44,-1.83 0.84,-3.82 0.45,-1.91 0.41,-1.91 0.45,-1.91 0.42,-1.91 0.42,-1.98 0.45,-1.91 0.41,-1.99 0.45,-1.91 0.84,-3.97 0.45,-1.98 0.42,-2.07 0.44,-1.98 0.43,-1.99 0.41,-2.06 0.45,-2.06 0.42,-1.99 0.44,-2.06 0.84,-4.12 0.45,-2.07 0.42,-2.06 0.45,-2.14 0.42,-2.06 0.42,-2.14 0.44,-2.06 0.43,-2.14 0.44,-2.13 0.84,-4.28 0.44,-2.14 0.43,-2.14 0.44,-2.21 0.84,-4.28 0.45,-2.21 0.42,-2.14 0.45,-2.22 0.84,-4.43 0.44,-2.21 0.42,-2.22 0.45,-2.21 0.84,-4.43 0.44,-2.29 0.42,-2.22 0.45,-2.21 0.42,-2.29 0.42,-2.22 0.45,-2.29 0.41,-2.29 0.45,-2.29 0.42,-2.22 0.42,-2.29 0.45,-2.29 0.42,-2.29 0.44,-2.29 0.42,-2.37 0.42,-2.29 0.44,-2.29 0.43,-2.29 0.44,-2.37 0.43,-2.29 0.41,-2.37 0.45,-2.29 0.42,-2.37 0.45,-2.29 0.84,-4.73 0.44,-2.29 0.42,-2.37 0.45,-2.37 0.84,-4.73 0.44,-2.37 0.43,-2.37 0.44,-2.37 0.84,-4.73 0.45,-2.37 0.42,-2.37 0.44,-2.36 0.42,-2.45 0.42,-2.36 0.45,-2.37 0.41,-2.37 0.45,-2.44 0.84,-4.74 0.45,-2.44 0.42,-2.37 0.44,-2.37 0.43,-2.44 0.41,-2.37 0.45,-2.44 0.42,-2.37 0.44,-2.44 0.84,-4.74 0.45,-2.44 0.42,-2.37 0.45,-2.44 0.42,-2.37 0.42,-2.45 0.44,-2.36 0.43,-2.45 0.44,-2.36 0.42,-2.45 0.42,-2.37 0.45,-2.44 0.42,-2.37 0.44,-2.44 0.42,-2.37 0.45,-2.37 0.42,-2.44 0.42,-2.37 0.45,-2.44 0.41,-2.37 0.45,-2.37 0.42,-2.44 0.42,-2.37 0.45,-2.37 0.42,-2.44 0.44,-2.37 0.84,-4.73 0.45,-2.37 0.42,-2.44 0.44,-2.37 0.84,-4.74 0.45,-2.36 0.42,-2.37 0.45,-2.37 0.84,-4.73 0.44,-2.29 0.42,-2.37 0.45,-2.37 0.42,-2.37 0.42,-2.29 0.44,-2.37 0.43,-2.29 0.44,-2.36 0.42,-2.29 0.42,-2.37 0.45,-2.29 0.42,-2.37 0.44,-2.29 0.84,-4.58 0.45,-2.3 0.41,-2.29 0.46,-2.29 0.84,-4.58 0.44,-2.29 0.42,-2.29 0.45,-2.22 0.42,-2.29 0.42,-2.21 0.44,-2.29 0.42,-2.22 0.44,-2.21 0.43,-2.29 0.41,-2.22 0.45,-2.21 0.42,-2.22 0.45,-2.21 0.84,-4.43 0.45,-2.14 0.42,-2.22 0.44,-2.13 0.42,-2.22 0.42,-2.14 0.44,-2.14 0.43,-2.21 0.44,-2.14 0.84,-4.28 0.45,-2.06 0.42,-2.14 0.45,-2.13 0.41,-2.07 0.43,-2.14 0.44,-2.06 0.42,-2.06 0.45,-2.14 0.84,-4.12 0.44,-1.99 0.42,-2.06 0.45,-2.06 0.42,-1.99 0.42,-2.06 0.45,-1.98 0.41,-1.99 0.45,-1.99 0.84,-3.97 0.45,-1.98 0.42,-1.99 0.44,-1.91 0.42,-1.98 0.42,-1.91 0.45,-1.91 0.42,-1.91 0.44,-1.91 0.84,-3.82 0.45,-1.83 0.42,-1.91 0.45,-1.83 0.84,-3.67 0.44,-1.83 0.42,-1.84 0.45,-1.83 0.42,-1.76 0.42,-1.83 0.44,-1.75 0.43,-1.76 0.44,-1.76 0.84,-3.51 0.45,-1.68 0.42,-1.76 0.44,-1.68 0.84,-3.36 0.45,-1.68 0.42,-1.68 0.45,-1.68 0.84,-3.21 0.44,-1.68 0.42,-1.6 0.45,-1.6 0.42,-1.53 0.42,-1.61 0.44,-1.52 0.42,-1.61 0.45,-1.52 0.83,-3.06 0.45,-1.45 0.42,-1.53 0.45,-1.45 0.84,-2.9 0.45,-1.45 0.42,-1.45 0.44,-1.45 0.84,-2.75 0.44,-1.38 0.43,-1.37 0.44,-1.38 0.42,-1.37 0.42,-1.3 0.45,-1.37 0.42,-1.3 0.87,-2.52 0.42,-1.3 0.44,-1.22 0.42,-1.3 0.45,-1.22 0.84,-2.45 0.44,-1.14 0.42,-1.22 0.45,-1.15 0.42,-1.15 0.45,-1.14 0.42,-1.15 0.41,-1.07 0.45,-1.14 0.42,-1.07 0.45,-1.07 0.42,-1.07 0.42,-0.99 0.44,-1.07 0.42,-0.99 0.45,-1 0.84,-1.98 0.44,-1 0.43,-0.91 0.44,-0.92 0.84,-1.83 0.45,-0.92 0.42,-0.84 0.44,-0.91 0.84,-1.68 0.45,-0.77 0.42,-0.84 0.45,-0.76 0.41,-0.84 0.43,-0.77 0.44,-0.68 0.42,-0.77 0.45,-0.76 0.84,-1.38 0.44,-0.68 0.42,-0.61 0.45,-0.69 0.84,-1.22 0.45,-0.61 0.41,-0.61 0.45,-0.62 0.84,-1.06 0.45,-0.54 0.42,-0.53 0.44,-0.46 0.42,-0.54 0.42,-0.45 0.45,-0.46 0.42,-0.46 0.44,-0.38 0.42,-0.46 0.42,-0.38 0.45,-0.39 0.42,-0.38 0.45,-0.3 0.42,-0.38 0.42,-0.31 0.44,-0.31 0.42,-0.3 0.45,-0.31 0.84,-0.45 0.44,-0.23 0.42,-0.23 0.45,-0.23 0.42,-0.15 0.42,-0.23 0.45,-0.16 0.42,-0.15 0.44,-0.08 0.42,-0.15 0.42,-0.07 0.45,-0.08 0.41,-0.08 0.45,-0.07 h 0.42 l 0.42,-0.08 h 0.87 l 0.45,0.08 h 0.42 l 0.42,0.07 0.44,0.08 0.42,0.08 0.45,0.07 0.42,0.15 0.42,0.08 0.44,0.15 0.42,0.16 0.45,0.23 0.42,0.15 0.42,0.23 0.44,0.23 0.43,0.23 0.44,0.22 0.42,0.23 0.42,0.31 0.45,0.3 0.42,0.31 0.44,0.31 0.42,0.38 0.42,0.3 0.45,0.38 0.42,0.39 0.45,0.38 0.41,0.46 0.43,0.38 0.44,0.46 0.42,0.46 0.45,0.45 0.42,0.54 0.42,0.46 0.44,0.53 0.42,0.54 0.45,0.53 0.42,0.53 0.42,0.62 0.45,0.61 0.41,0.61 0.45,0.61 0.42,0.61 0.42,0.69 0.45,0.61 0.42,0.68 0.44,0.69 0.42,0.69 0.42,0.76 0.45,0.77 0.42,0.68 0.44,0.77 0.42,0.84 0.42,0.76 0.45,0.84 0.42,0.77 0.45,0.84 0.42,0.84 0.42,0.91 0.44,0.84 0.42,0.92 0.45,0.92 0.84,1.83 0.44,0.91 0.42,1 0.45,0.99 0.84,1.99 0.45,0.99 0.42,1.07 0.44,0.99 0.84,2.14 0.45,1.07 0.42,1.14 0.44,1.07 0.84,2.29 0.45,1.15 0.42,1.15 0.45,1.22 0.42,1.14 0.42,1.22 0.44,1.23 2.15,6.26 0.42,1.3 0.45,1.3 0.42,1.37 0.45,1.3 0.84,2.75 0.44,1.37 0.42,1.38 0.45,1.37 0.42,1.38 0.42,1.45 0.44,1.45 0.42,1.45 0.45,1.45 0.84,2.9 0.45,1.53 0.41,1.45 0.45,1.53 0.84,3.05 0.45,1.61 0.42,1.52 0.44,1.61 0.43,1.53 0.41,1.6 0.45,1.6 0.42,1.68 0.44,1.61 0.43,1.6 0.41,1.68 0.45,1.68 0.42,1.68 0.45,1.68 0.84,3.36 0.44,1.76 0.43,1.68 0.44,1.76 0.84,3.51 0.44,1.76 0.42,1.75 0.45,1.83 0.42,1.76 0.42,1.83 0.45,1.84 0.42,1.83 0.45,1.83 0.83,3.67 0.45,1.91 0.42,1.83 0.44,1.91 0.84,3.82 0.45,1.91 0.42,1.91 0.45,1.91 0.42,1.98 0.42,1.91 0.44,1.99 0.42,1.98 0.45,1.99 0.84,3.97 0.44,1.99 0.42,1.98 0.45,2.06 0.42,1.99 0.42,2.06 0.45,2.06 0.42,1.99 0.44,2.06 0.42,2.06 0.42,2.14 0.45,2.06 0.42,2.06 0.44,2.14 0.42,2.07 0.42,2.13 0.45,2.14 0.42,2.06 0.45,2.14 0.84,4.28 0.44,2.21 0.42,2.14 0.45,2.14 0.42,2.22 0.42,2.13 0.44,2.22 0.42,2.14 0.45,2.21 0.84,4.43 0.45,2.22 0.41,2.21 0.45,2.22 0.42,2.29 0.42,2.21 0.45,2.22 0.42,2.29 0.44,2.21 0.42,2.29 0.42,2.22 0.45,2.29 0.42,2.29 0.44,2.29 0.84,4.58 0.45,2.29 0.42,2.3 0.45,2.29 0.84,4.58 0.44,2.37 0.43,2.29 0.44,2.37 0.42,2.29 0.42,2.36 0.44,2.29 0.43,2.37 0.44,2.29 0.84,4.74 0.45,2.37 0.42,2.29 0.45,2.36 0.84,4.74 0.44,2.37 0.42,2.36 0.44,2.37 0.84,4.74 0.45,2.44 0.42,2.37 0.45,2.37 0.84,4.73 0.44,2.44 0.42,2.37 0.45,2.37 0.42,2.44 0.42,2.37 0.44,2.37 0.42,2.44 0.45,2.37 0.42,2.44 0.42,2.37 0.44,2.37 0.43,2.44 0.44,2.37 0.42,2.44 0.42,2.37 0.45,2.45 0.42,2.36 0.44,2.45 0.42,2.36 0.42,2.45 0.45,2.37 0.42,2.44 0.45,2.37 0.41,2.44 0.45,2.37 0.42,2.37 0.42,2.44 0.45,2.37 0.42,2.44 0.44,2.37 0.42,2.44 0.42,2.37 0.45,2.37 0.42,2.44 0.44,2.37 0.43,2.37 0.41,2.44 0.45,2.37 0.42,2.37 0.45,2.36 0.42,2.45 0.42,2.36 0.44,2.37 0.43,2.37 0.44,2.37 0.84,4.73 0.44,2.37 0.43,2.37 0.44,2.36 0.84,4.74 0.45,2.37 0.42,2.29 0.45,2.37 0.41,2.36 0.43,2.29 0.44,2.37 0.42,2.29 0.45,2.37 0.41,2.29 0.43,2.37 0.44,2.29 0.42,2.29 0.45,2.29 0.42,2.37 0.42,2.29 0.45,2.29 0.41,2.29 0.45,2.29 0.42,2.22 0.42,2.29 0.44,2.29 0.42,2.29 0.45,2.22 0.42,2.29 0.42,2.21 0.45,2.22 0.42,2.29 0.44,2.21 0.84,4.43 0.45,2.22 0.42,2.21 0.44,2.22 0.84,4.43 0.45,2.14 0.42,2.21 0.45,2.14 0.41,2.14 0.43,2.21 0.44,2.14 0.42,2.14 0.45,2.14 0.84,4.27 0.44,2.14 0.42,2.06 0.45,2.14 0.42,2.06 0.42,2.14 0.45,2.06 0.41,2.07 0.45,2.06 0.84,4.12 0.45,1.99 0.42,2.06 0.44,2.06 0.84,3.97 0.45,2.07 0.42,1.98 0.44,1.99 0.43,1.98 0.41,1.91 0.45,1.99 0.42,1.91 0.45,1.98 0.84,3.82 0.44,1.91 0.42,1.91 0.45,1.9 0.42,1.92 0.42,1.83 0.44,1.91 0.43,1.83 0.44,1.84 0.84,3.66 0.45,1.83 0.42,1.84 0.45,1.75 0.41,1.84 0.43,1.75 0.44,1.76 0.42,1.76 0.45,1.75 0.84,3.52 0.44,1.68 0.42,1.68 0.45,1.75 0.84,3.36 0.45,1.61 0.41,1.68 0.45,1.6 0.42,1.68 0.42,1.61 0.45,1.6 0.41,1.6 0.45,1.61 0.42,1.52 0.42,1.61 0.45,1.53 0.42,1.52 0.44,1.53 0.84,3.05 0.45,1.46 0.42,1.52 0.44,1.45 0.84,2.91 0.45,1.37 0.42,1.45 0.45,1.38 0.41,1.45 0.43,1.37 0.44,1.38 0.43,1.37 0.44,1.3 0.42,1.37 0.42,1.3 0.44,1.3 0.42,1.3 0.87,2.52 0.42,1.3 0.45,1.22 0.41,1.22 0.46,1.22 0.83,2.45 0.45,1.14 0.42,1.15 0.44,1.14 0.42,1.15 0.45,1.15 0.42,1.07 0.42,1.14 0.44,1.07 0.43,1.07 0.44,1.07 0.42,1.07 0.42,0.99 0.45,0.99 0.42,1.07 0.44,1 0.42,0.91 0.43,0.99 0.44,0.92 0.42,0.99 0.45,0.92 0.41,0.84 0.43,0.92 0.44,0.91 0.42,0.84 0.45,0.84 0.84,1.68 0.45,0.77 0.41,0.84 0.45,0.76 0.84,1.53 0.45,0.69 0.41,0.76 0.45,0.69 0.84,1.37 0.45,0.69 0.42,0.61 0.44,0.69 0.84,1.22 0.45,0.53 0.42,0.61 0.44,0.54 0.84,1.07 0.45,0.53 0.42,0.54 0.45,0.46 0.84,0.91 0.44,0.46 0.43,0.46 0.44,0.38 0.84,0.76 0.44,0.39 0.43,0.38 0.44,0.3 0.42,0.31 0.42,0.38 0.45,0.23 0.41,0.31 0.46,0.22 0.41,0.31 0.43,0.23 0.44,0.23 0.42,0.15 0.44,0.23 0.84,0.31 0.45,0.15 0.42,0.15 0.44,0.08 0.43,0.07 0.41,0.16 h 0.46 l 0.41,0.07 0.45,0.08 h 1.7 l 0.45,-0.08 0.42,-0.07 h 0.42 l 0.44,-0.16 0.43,-0.07 0.44,-0.08 0.84,-0.3 0.45,-0.16 0.42,-0.15 0.45,-0.23 0.41,-0.15 0.42,-0.23 0.45,-0.23 0.42,-0.31 0.45,-0.22 0.41,-0.31 0.43,-0.23 0.44,-0.38 0.42,-0.31 0.45,-0.3 0.84,-0.77 0.45,-0.38 0.41,-0.38 0.45,-0.38 0.84,-0.92 0.45,-0.46 0.41,-0.45 0.45,-0.46 0.84,-1.07 0.45,-0.54 0.42,-0.53 0.44,-0.54 0.43,-0.61 0.41,-0.53 0.45,-0.61 0.42,-0.61 0.44,-0.69 0.43,-0.61 0.41,-0.69 0.45,-0.69 0.42,-0.68 0.45,-0.69 0.42,-0.76 0.42,-0.69 0.44,-0.77 0.43,-0.76 0.44,-0.76 0.42,-0.84 0.42,-0.77 0.44,-0.84 0.43,-0.84 0.44,-0.84 0.42,-0.84 0.42,-0.91 0.45,-0.92 0.41,-0.84 0.46,-0.92 0.41,-0.99 0.43,-0.92 0.44,-0.99 0.42,-0.91 0.45,-1 0.41,-1.07 0.42,-0.99 0.45,-0.99 0.42,-1.07 0.44,-1.07 0.84,-2.14 0.46,-1.14 0.41,-1.07 0.45,-1.15 0.84,-2.29 0.44,-1.15 0.42,-1.14 0.45,-1.22 0.42,-1.23 0.45,-1.22 2.15,-6.26 0.84,-2.6 0.44,-1.3 0.42,-1.37 0.45,-1.3 0.84,-2.75 0.45,-1.37 0.41,-1.45 0.46,-1.38 0.41,-1.45 0.42,-1.37 0.45,-1.45 0.42,-1.46 0.44,-1.45 0.43,-1.52 0.41,-1.46 0.45,-1.52 0.42,-1.53 0.44,-1.53 0.84,-3.05 0.45,-1.61 0.42,-1.52 0.45,-1.61 0.84,-3.2 0.44,-1.61 0.43,-1.68 0.44,-1.6 0.42,-1.68 0.42,-1.61 0.44,-1.68 0.43,-1.68 0.44,-1.75 0.84,-3.36 0.45,-1.76 0.42,-1.76 0.45,-1.75 0.84,-3.52 0.44,-1.75 0.42,-1.84 0.45,-1.75 0.84,-3.67 0.44,-1.83 0.42,-1.83 0.45,-1.84 0.42,-1.83 0.41,-1.91 0.46,-1.83 0.41,-1.92 0.45,-1.9 0.84,-3.82 0.45,-1.91 0.41,-1.91 0.45,-1.98 0.42,-1.91 0.42,-1.99 0.44,-1.91 0.43,-1.98 0.44,-1.99 0.43,-1.98 0.41,-2.07 0.45,-1.98 0.42,-1.99 0.44,-2.06 0.43,-2.06 0.41,-1.99 0.45,-2.06 0.42,-2.06 0.45,-2.06 0.84,-4.13 0.44,-2.14 0.43,-2.06 0.44,-2.14 0.42,-2.06 0.42,-2.14 0.45,-2.13 0.41,-2.14 0.45,-2.14 0.84,-4.28 0.45,-2.21 0.41,-2.14 0.46,-2.14 0.41,-2.21 0.43,-2.14 0.44,-2.22 0.42,-2.21 0.44,-2.22 0.84,-4.43 0.45,-2.21 0.42,-2.22 0.44,-2.21 0.43,-2.29 0.41,-2.22 0.46,-2.21 0.41,-2.29 0.45,-2.22 0.84,-4.58 0.44,-2.29 0.43,-2.22 0.44,-2.29 0.84,-4.58 0.44,-2.29 0.43,-2.37 0.44,-2.29 0.84,-4.58 0.45,-2.37 0.42,-2.29 0.45,-2.37 0.41,-2.29 0.43,-2.37 0.44,-2.29 0.42,-2.36 0.45,-2.37 0.41,-2.29 0.43,-2.37 0.44,-2.37 0.42,-2.37 0.45,-2.36 0.84,-4.74 0.45,-2.37 0.41,-2.36 0.45,-2.37 0.84,-4.74 0.45,-2.36 0.41,-2.45 0.45,-2.36 0.84,-4.74 0.44,-2.44 0.43,-2.37 0.44,-2.37 0.43,-2.44 0.41,-2.37 0.45,-2.37 0.42,-2.44 0.44,-2.37 0.43,-2.44 0.41,-2.37 0.45,-2.44 0.42,-2.37 0.45,-2.37 0.41,-2.44 0.43,-2.37 0.44,-2.44 0.43,-2.37 0.44,-2.45 0.42,-2.36 0.45,-2.45 0.41,-2.36 0.43,-2.45 0.44,-2.37 0.42,-2.44 0.44,-2.37 0.43,-2.44 0.41,-2.37 0.46,-2.37 0.41,-2.44 0.45,-2.37 0.42,-2.44 0.42,-2.37 0.44,-2.37 0.43,-2.44 0.44,-2.37 0.42,-2.37 0.42,-2.44 0.44,-2.37 0.43,-2.36 0.44,-2.37 0.43,-2.37 0.41,-2.44 0.45,-2.37 0.42,-2.37 0.45,-2.37 0.84,-4.73 0.44,-2.37 0.42,-2.37 0.45,-2.36 0.41,-2.29 0.43,-2.37 0.44,-2.37 0.43,-2.37 0.44,-2.29 0.42,-2.37 0.42,-2.29 0.45,-2.36 0.41,-2.29 0.45,-2.37 0.42,-2.29 0.42,-2.37 0.45,-2.29 0.41,-2.29 0.45,-2.29 0.84,-4.59 0.45,-2.29 0.42,-2.29 0.44,-2.29 0.84,-4.58 0.45,-2.22 0.42,-2.29 0.44,-2.21 0.43,-2.29 0.41,-2.22 0.45,-2.21 0.42,-2.29 0.45,-2.22 0.84,-4.43 0.44,-2.21 0.43,-2.22 0.44,-2.21 0.42,-2.14 0.42,-2.22 0.44,-2.13 0.43,-2.22 0.44,-2.14 0.42,-2.14 0.42,-2.21 0.45,-2.14 0.41,-2.14 0.46,-2.14 0.41,-2.06 0.43,-2.14 0.44,-2.13 0.42,-2.07 0.45,-2.14 0.84,-4.12 0.44,-2.14 0.42,-2.06 0.44,-2.06 0.43,-1.99 0.41,-2.06 0.46,-2.06 0.41,-1.99 0.45,-2.06 0.84,-3.97 0.45,-1.99 0.42,-1.98 0.44,-1.99 0.84,-3.97 0.44,-1.91 0.43,-1.98 0.44,-1.91 0.84,-3.82 0.45,-1.91 0.42,-1.91 0.45,-1.91 0.41,-1.83 0.43,-1.91 0.44,-1.83 0.42,-1.84 0.45,-1.83 0.84,-3.67 0.44,-1.83 0.43,-1.76 0.44,-1.83 0.84,-3.51 0.45,-1.76 0.41,-1.75 0.45,-1.76 0.42,-1.68 0.42,-1.76 0.45,-1.68 0.41,-1.68 0.46,-1.68 0.83,-3.36 0.45,-1.68 0.42,-1.6 0.44,-1.61 0.43,-1.68 0.41,-1.6 0.45,-1.6 0.42,-1.53 0.44,-1.61 0.43,-1.52 0.41,-1.61 0.45,-1.52 0.42,-1.53 0.45,-1.53 0.42,-1.45 0.42,-1.53 0.44,-1.45 0.43,-1.45 0.44,-1.45 0.84,-2.9 0.44,-1.45 0.43,-1.38 0.44,-1.37 0.84,-2.75 0.45,-1.38 0.42,-1.37 0.45,-1.3 0.41,-1.37 0.43,-1.3 1.72,-5.04 0.43,-1.3 0.44,-1.22 0.42,-1.23 0.45,-1.22 0.42,-1.14 0.44,-1.22 0.84,-2.3 0.45,-1.14 0.42,-1.15 0.45,-1.07 0.42,-1.14 0.42,-1.07 0.44,-1.07 0.42,-1.07 0.45,-0.99 0.41,-1.07 0.43,-0.99 0.44,-1 0.43,-0.99 0.44,-0.99 0.42,-1 0.42,-0.91 0.45,-0.92 0.42,-0.91 0.44,-0.92 0.42,-0.92 0.42,-0.84 0.45,-0.91 0.41,-0.84 0.46,-0.84 0.41,-0.77 0.43,-0.84 0.44,-0.76 0.42,-0.84 0.45,-0.77 0.42,-0.68 0.41,-0.77 0.45,-0.76 0.42,-0.69 0.44,-0.69 0.43,-0.68 0.41,-0.61 0.46,-0.69 0.41,-0.61 0.45,-0.61 0.84,-1.22 0.44,-0.62 0.43,-0.53 0.44,-0.53 0.84,-1.07 0.44,-0.46 0.43,-0.54 0.44,-0.45 0.84,-0.92 0.45,-0.38 0.42,-0.46 0.45,-0.38 0.84,-0.77 0.44,-0.3 0.42,-0.38 0.45,-0.31 0.84,-0.61 0.44,-0.31 0.42,-0.23 0.45,-0.22 0.84,-0.46 0.45,-0.23 0.41,-0.15 0.45,-0.23 0.84,-0.31 0.45,-0.08 0.42,-0.15 0.44,-0.07 0.84,-0.16 0.45,-0.07 h 0.42 l 0.44,-0.08 h 0.43" /></g></g></g><path
     style="fill:#000000;fill-opacity:0;stroke:#000000;stroke-width:1.002;stroke-dasharray:none"
     d="m 218.38791,93.319016 h 38.18013"
     id="path1" /><path
     style="fill:#000000;fill-opacity:0;stroke:#000000;stroke-width:1.002;stroke-dasharray:none"
     d="m 218.39904,100.43924 h 38.18013"
     id="path1-0" /><path
     style="fill:#000000;fill-opacity:0;stroke:#000000;stroke-width:1.002;stroke-dasharray:none"
     d="m 251.15204,106.24235 c 9.06242,-9.437787 9.06242,-9.437787 9.06242,-9.437787 l -9.06242,-8.955173"
     id="path2" /><path
     style="fill:#000000;fill-opacity:0;stroke:#000000;stroke-width:1.002;stroke-dasharray:none"
     d="m 479.16254,93.258517 h 38.18013"
     id="path1-3" /><path
     style="fill:#000000;fill-opacity:0;stroke:#000000;stroke-width:1.002;stroke-dasharray:none"
     d="M 479.17367,100.37874 H 517.3538"
     id="path1-0-2" /><path
     style="fill:#000000;fill-opacity:0;stroke:#000000;stroke-width:1.002;stroke-dasharray:none"
     d="m 511.92667,106.18185 c 9.06242,-9.437786 9.06242,-9.437786 9.06242,-9.437786 l -9.06242,-8.955173"
     id="path2-7" /><text
     xml:space="preserve"
     style="font-style:normal;font-variant:normal;font-weight:normal;font-stretch:normal;font-size:28.8207px;font-family:'Times New Roman';-inkscape-font-specification:'Times New Roman, Normal';font-variant-ligatures:normal;font-variant-caps:normal;font-variant-numeric:normal;font-variant-east-asian:normal;fill:#000000;fill-opacity:1;stroke:#000000;stroke-width:3.61;stroke-dasharray:none;stroke-opacity:0"
     x="228.38469"
     y="81.390121"
     id="text2"><tspan
       sodipodi:role="line"
       id="tspan2"
       x="228.38469"
       y="81.390121"
       style="font-style:normal;font-variant:normal;font-weight:normal;font-stretch:normal;font-size:28.8207px;font-family:'Times New Roman';-inkscape-font-specification:'Times New Roman, Normal';font-variant-ligatures:normal;font-variant-caps:normal;font-variant-numeric:normal;font-variant-east-asian:normal;fill:#000000;fill-opacity:1;stroke:#000000;stroke-width:3.61;stroke-dasharray:none;stroke-opacity:0">I.</tspan></text><text
     xml:space="preserve"
     style="font-style:normal;font-variant:normal;font-weight:normal;font-stretch:normal;font-size:28.8207px;font-family:'Times New Roman';-inkscape-font-specification:'Times New Roman, Normal';font-variant-ligatures:normal;font-variant-caps:normal;font-variant-numeric:normal;font-variant-east-asian:normal;fill:#000000;fill-opacity:1;stroke:#000000;stroke-width:3.61;stroke-dasharray:none;stroke-opacity:0"
     x="487.53973"
     y="81.893929"
     id="text2-2"><tspan
       sodipodi:role="line"
       id="tspan2-1"
       x="487.53973"
       y="81.893929"
       style="font-style:normal;font-variant:normal;font-weight:normal;font-stretch:normal;font-size:28.8207px;font-family:'Times New Roman';-inkscape-font-specification:'Times New Roman, Normal';font-variant-ligatures:normal;font-variant-caps:normal;font-variant-numeric:normal;font-variant-east-asian:normal;fill:#000000;fill-opacity:1;stroke:#000000;stroke-width:3.61;stroke-dasharray:none;stroke-opacity:0">II.</tspan></text><text
     xml:space="preserve"
     style="font-size:28.8207px;font-family:'Times New Roman';-inkscape-font-specification:'Times New Roman, Normal';fill:#000000;stroke:#000000;stroke-width:3.61;stroke-opacity:0"
     x="239.38243"
     y="19.160217"
     id="text1"><tspan
       sodipodi:role="line"
       id="tspan1"
       x="239.38243"
       y="19.160217"
       style="font-style:italic;font-variant:normal;font-weight:normal;font-stretch:normal;font-size:23.7771px;font-family:'Times New Roman';-inkscape-font-specification:'Times New Roman, Italic';font-variant-ligatures:normal;font-variant-caps:normal;font-variant-numeric:normal;font-variant-east-asian:normal">i<tspan
   style="font-style:italic;font-variant:normal;font-weight:normal;font-stretch:normal;font-size:13.3333px;font-family:'Times New Roman';-inkscape-font-specification:'Times New Roman, Italic';font-variant-ligatures:normal;font-variant-caps:normal;font-variant-numeric:normal;font-variant-east-asian:normal;baseline-shift:sub"
   id="tspan3">VF</tspan></tspan></text><text
     xml:space="preserve"
     style="font-size:28.8207px;font-family:'Times New Roman';-inkscape-font-specification:'Times New Roman, Normal';fill:#000000;stroke:#000000;stroke-width:3.61;stroke-opacity:0"
     x="0.7833277"
     y="20.767967"
     id="text1-2"><tspan
       sodipodi:role="line"
       id="tspan1-7"
       x="0.7833277"
       y="20.767967"
       style="font-style:italic;font-variant:normal;font-weight:normal;font-stretch:normal;font-size:23.7771px;font-family:'Times New Roman';-inkscape-font-specification:'Times New Roman, Italic';font-variant-ligatures:normal;font-variant-caps:normal;font-variant-numeric:normal;font-variant-east-asian:normal">i<tspan
   style="font-style:italic;font-variant:normal;font-weight:normal;font-stretch:normal;font-size:13.3333px;font-family:'Times New Roman';-inkscape-font-specification:'Times New Roman, Italic';font-variant-ligatures:normal;font-variant-caps:normal;font-variant-numeric:normal;font-variant-east-asian:normal;baseline-shift:sub"
   id="tspan3-0" /></tspan></text><text
     xml:space="preserve"
     style="font-size:28.8207px;font-family:'Times New Roman';-inkscape-font-specification:'Times New Roman, Normal';fill:#000000;stroke:#000000;stroke-width:3.61;stroke-opacity:0"
     x="510.08496"
     y="20.063732"
     id="text1-7"><tspan
       sodipodi:role="line"
       id="tspan1-6"
       x="510.08496"
       y="20.063732"
       style="font-style:italic;font-variant:normal;font-weight:normal;font-stretch:normal;font-size:23.7771px;font-family:'Times New Roman';-inkscape-font-specification:'Times New Roman, Italic';font-variant-ligatures:normal;font-variant-caps:normal;font-variant-numeric:normal;font-variant-east-asian:normal">I<tspan
   style="font-style:italic;font-variant:normal;font-weight:normal;font-stretch:normal;font-size:13.3333px;font-family:'Times New Roman';-inkscape-font-specification:'Times New Roman, Italic';font-variant-ligatures:normal;font-variant-caps:normal;font-variant-numeric:normal;font-variant-east-asian:normal;baseline-shift:sub"
   id="tspan3-7">VF</tspan></tspan></text></svg>
